/* XPM */
static char * C:\Users\john\Desktop\face_xpm[] = {
"48 48 5 1",
" 	c None",
".	c #FFA500",
"+	c #000080",
"@	c #000000",
"#	c #FFFFFF",
"             .....................              ",
"            .......................             ",
"           ...+++++++++++++++++++...            ",
"          ...+++++++++++++++++++++...           ",
"         ...+++++++++++++++++++++++...          ",
"        ...+++++++++++++++++++++++++...         ",
"       ...+++++++++++++++++++++++++++...        ",
"      ...+++++++++++++++++++++++++++++...       ",
"     ...+++++++++++++++++++++++++++++++...      ",
"     ..+++++++++++++++++++++++++++++++++..      ",
"     ..+++++++++++...........+++++++++++..      ",
"     ..+++++++++++...........+++++++++++..      ",
"     ..+++++++++++..       ..+++++++++++..      ",
"     ..+++++++++++..       ..+++++++++++..      ",
"     ..+++++++++++..       ..+++++++++++..      ",
"     ..+++++++++++..       ..+++++++++++..      ",
"     ..+++++++++++..       ..+++++++++++..      ",
"     ..+++++++++++..       ...............      ",
"   @@@@@@@@@@@@@@@@@@@@@@@@@@@@@@@@@@@@@@@@@@   ",
"  @@########################################@   ",
"  @@##@@@@@######################@@@######@#@   ",
"  @@#@@###@#####################@##@########@   ",
"  @@#@#######@@##@@@#@@##@@@####@@####@@#@@#@   ",
"  @@#@######@##@#@##@##@#@##@####@@##@####@#@   ",
"  @@#@######@##@#@##@##@#@##@######@#@####@#@   ",
"  @@#@@###@#@##@#@##@##@#@##@###@##@#@####@#@   ",
"  @@##@@@@###@@##@@#@@#@@@@@####@@@###@@##@#@   ",
"  @@#####################@##################@   ",
"  @@@@@@@@@@@@@@@@@@@@@@@@@@@@@@@@@@@@@@@@@@@   ",
"  @@@@@@@@@@@@@@@@@@@@@@@@@@@@@@@@@@@@@@@@@@    ",
"     ..+++++++++++..  .......+++++++++++..      ",
"     ..+++++++++++..  .......+++++++++++..      ",
"     ..+++++++++++..       ..+++++++++++..      ",
"     ..+++++++++++..       ..+++++++++++..      ",
"     ..+++++++++++..       ..+++++++++++..      ",
"     ..+++++++++++..       ..+++++++++++..      ",
"     ..+++++++++++...........+++++++++++..      ",
"     ..+++++++++++...........+++++++++++..      ",
"     ..+++++++++++++++++++++++++++++++++..      ",
"     ...+++++++++++++++++++++++++++++++...      ",
"      ...+++++++++++++++++++++++++++++...       ",
"       ...+++++++++++++++++++++++++++...        ",
"        ...+++++++++++++++++++++++++...         ",
"         ...+++++++++++++++++++++++...          ",
"          ...+++++++++++++++++++++...           ",
"           ...+++++++++++++++++++...            ",
"            .......................             ",
"             .....................              "};
