/* XPM */
static char * C:\Users\john\go\src\github_com\JohnDDuncanIII\homepage\assets\portfolio\picons\domains\com\accuweather\face_xpm[] = {
"48 48 6 1",
" 	c None",
".	c #000500",
"+	c #293F6C",
"@	c #1C51DF",
"#	c #1B9000",
"$	c #FFCF00",
"  @@@@@@@@@@@@@@@@@@@@@@@@@@@@@@@@@.@@@@@@@@@.  ",
" @@@@@@@@@@@@@@@@@@@@@@@@@@@@@@@@@@.@@@@@@@@@.+ ",
"@@@@@@@@@@@@@@@@@@@@@@@@@@@@@@@@@@@@.@@@@@@@@.++",
"@@@@@@@@@@@@@@@@@@@@@@@@@@###########.#######.++",
"@@@@@@@@@@@@@@@@@@@@@@@###############.######.++",
"@@@@@@@@@@@@@@@@@@@@@@#################.#####.++",
"@@@@@@@@@@@@@@@@@@@@####################.#####.+",
"@@@@@@@@@@@@@@@@@@######################.######.",
"@@@@@@@@@@@@@@@@@######################.#######.",
"@@@@@@@@@@@@@@@@######################.########.",
"@@@@@@@@@@@@@@#######################.########.+",
"@@@@@@@@@@@@@#######################..########.+",
"@@@@@@@@@@@@@######################...########.+",
"@@@@@@@@@@@@@####################...#.########.+",
"@@@@@@@@@@@###################...#..##.######.++",
"@@@@@@@@@@##################..######.$.$$$$$..++",
"@@@@@@@@@################...###$$$$$.$......++++",
"@@@@@@@@@##############..####$$$.$$$.$$.++++++++",
"@@@@@@@@############...#####$$$..$$$$.$.++++++++",
"@@@@@@@@##########..######$$$$$..$$$$.$$.+++++++",
"@@@@@@@@########..#######$$$$$$..$$$$.$$$.++++++",
"@@@@@@@######...########$$$$$$$..$$$$$.$$$..++++",
"@@@@@@####...##########$$$$$$$$.+.$$$$.$$$$$.+++",
"@@@@@@##..###.......###$$$$$$$$.+.$$$$.$$$$$$.++",
"@@@@@...###..#######...$$$$$$$$.+.$$$$$.$$$$..++",
"@@@#.#####.#########.#$.$$$$$$$.+.$$$$$.$$..$.++",
"....#####.####......#$$$..$$$$$.++.$$$$.$.$$$.++",
"@@#.####.#####.#####$$$$$$.$$$$.++.$$$$..$$$$.++",
"@###.##.######.#####$$$$$$$.$$$.+++.$$..$$$$$.++",
"####...#######.####$$$$$$$$$.$$$.+++...$$$$$$.++",
"#############.####$$$$$$$$$$.$$$$.++++..$$$$$$.+",
"############.#####$$$$$$$$$$$.$$$$.++++.$$$$$$.+",
"###########.######$$$$$$$$$$$.$$$.++++++.$$$$.++",
"###########.######$$$$$$$$$$$.$$$.+++++++.$$$.++",
"##########.#######$$$$$$$$$$$$.$..+++++++.$$$.++",
"##########.######$$$$$$$$$$$$$...++++++++.$$$.++",
"##########.######$$$$$$$$$$$$$$..++++++++.$$$.++",
"#########.#######$$$$$$$$$$$$$$$..+++++++.....++",
"########.########$$$$$$$$$$$$$$$$$....+++.$$.+++",
"#######.########$$$$$$$$$$$$$$$$$$$$$$.....$.+++",
"######.#########$$$$$$$$$$$$$$$$$$$$$$$$.+.$.+++",
"######.#########$$$$$$$$$$$$$$$$$$$$$$$$.+.$.+++",
"######.#########$$$$$$$$$$$$$$$$$$$$$$$$.+...+++",
"#####.#########$$$$$$$$$$$$$$$$$$$$$$$$$.+++++++",
"#####.#########$$$$$$$$$$$$$$$$$$$$$$$$$.+++++++",
"#####.#########$$$$$$$$$$$$$$$$$$$$$$$$$$.....++",
" ###.#########$$$$$$$$$$$$$$$$$$$$$$$$$$$$$$$$. ",
"  ##.#########$$$$$$$$$$$$$$$$$$$$$$$$$$$$$$$$  "};
