#define face_width 64
#define face_height 64
static unsigned char face_bits[] = {
   0x00, 0x00, 0x00, 0x80, 0x00, 0x00, 0x00, 0x00, 0x00, 0x00, 0x00, 0x40,
   0x01, 0x00, 0x00, 0x00, 0x00, 0x00, 0x00, 0xa0, 0x02, 0x00, 0x00, 0x00,
   0x00, 0x00, 0x00, 0x50, 0x05, 0x00, 0x00, 0x00, 0x00, 0x00, 0x00, 0xa8,
   0x0a, 0x00, 0x00, 0x00, 0x00, 0x00, 0x00, 0xfc, 0x1f, 0x00, 0x00, 0x00,
   0x00, 0x00, 0x00, 0x00, 0x00, 0x00, 0x00, 0x00, 0x00, 0x00, 0x00, 0xf8,
   0x1f, 0x00, 0x00, 0x00, 0x00, 0x00, 0x80, 0x57, 0xf5, 0x01, 0x00, 0x00,
   0x00, 0xaa, 0xe1, 0x80, 0x80, 0x86, 0x55, 0x00, 0x00, 0xd4, 0x58, 0x55,
   0x55, 0x1d, 0x2b, 0x00, 0x00, 0x6a, 0x26, 0x22, 0x22, 0x62, 0x56, 0x00,
   0x00, 0x34, 0x55, 0x55, 0x55, 0xd5, 0x2c, 0x00, 0x00, 0x9a, 0x80, 0x80,
   0x80, 0x80, 0x59, 0x00, 0x00, 0x4c, 0x55, 0x55, 0x55, 0x55, 0x33, 0x00,
   0x00, 0x26, 0x22, 0x22, 0x22, 0x22, 0x66, 0x00, 0x00, 0x52, 0x55, 0x55,
   0x55, 0x55, 0x4d, 0x00, 0x00, 0x88, 0x80, 0x80, 0x80, 0x80, 0x10, 0x00,
   0x00, 0x58, 0x55, 0xd5, 0x55, 0x55, 0x15, 0x00, 0x00, 0x24, 0x22, 0xa2,
   0x22, 0x22, 0x22, 0x00, 0x00, 0x54, 0x55, 0xd5, 0x55, 0x55, 0x35, 0x00,
   0x00, 0x82, 0x80, 0xc0, 0x80, 0x81, 0x40, 0x00, 0x00, 0x56, 0x55, 0xd5,
   0x55, 0x55, 0x55, 0x00, 0x00, 0x23, 0x22, 0xe3, 0xa3, 0x23, 0xa2, 0x00,
   0x00, 0x55, 0x55, 0x75, 0xd5, 0x55, 0xd5, 0x00, 0x00, 0x81, 0x80, 0x61,
   0x91, 0x85, 0x80, 0x00, 0x00, 0x55, 0xd5, 0x75, 0x57, 0x55, 0xd5, 0x00,
   0xa0, 0x22, 0xa6, 0x63, 0x32, 0x26, 0x22, 0x05, 0xb0, 0x55, 0xd5, 0x57,
   0x7f, 0x57, 0x55, 0x0d, 0xa8, 0x80, 0x8c, 0x92, 0xf9, 0xa7, 0x80, 0x15,
   0xb4, 0x55, 0xdd, 0x57, 0x4d, 0x56, 0x55, 0x2d, 0xaa, 0x22, 0x2e, 0xba,
   0x9a, 0x0b, 0x22, 0x55, 0xb5, 0x55, 0x75, 0xdd, 0xbd, 0x4d, 0x55, 0xad,
   0xaa, 0x80, 0xe0, 0xdc, 0xb8, 0xad, 0x80, 0x55, 0xb4, 0x55, 0xf7, 0x7f,
   0x3d, 0x61, 0x55, 0x2d, 0xa8, 0x22, 0xe2, 0x6b, 0x33, 0x32, 0x22, 0x15,
   0xb0, 0x55, 0x77, 0x58, 0x77, 0x7e, 0xd5, 0x0c, 0xa0, 0x81, 0xe6, 0x98,
   0x67, 0xbe, 0x80, 0x04, 0x00, 0x55, 0xfd, 0xf8, 0x77, 0x70, 0xd5, 0x00,
   0x00, 0x23, 0x66, 0x70, 0x33, 0x38, 0xa2, 0x00, 0x00, 0x55, 0x7f, 0x20,
   0x37, 0x5c, 0xd5, 0x00, 0x00, 0x83, 0x44, 0x80, 0x3b, 0x8e, 0x40, 0x00,
   0x00, 0x56, 0x1d, 0xc8, 0x1f, 0x57, 0x55, 0x00, 0x00, 0x26, 0x7e, 0xfe,
   0x5b, 0x23, 0x22, 0x00, 0x00, 0x54, 0xfd, 0xfe, 0xdf, 0x57, 0x35, 0x00,
   0x00, 0x8c, 0xf0, 0xff, 0xff, 0x81, 0x10, 0x00, 0x00, 0x58, 0x55, 0x55,
   0x55, 0x55, 0x15, 0x00, 0x00, 0x32, 0x22, 0x22, 0x22, 0x22, 0x4a, 0x00,
   0x00, 0x66, 0x55, 0x55, 0x55, 0x55, 0x65, 0x00, 0x00, 0xcc, 0x80, 0x80,
   0x80, 0x80, 0x32, 0x00, 0x00, 0x9a, 0x55, 0x55, 0x55, 0x55, 0x59, 0x00,
   0x00, 0x34, 0x23, 0x22, 0x22, 0xa2, 0x2c, 0x00, 0x00, 0x6a, 0x56, 0x55,
   0x55, 0x75, 0x56, 0x00, 0x00, 0xd4, 0x9c, 0x80, 0x80, 0x18, 0x2b, 0x00,
   0x00, 0xaa, 0x71, 0x55, 0x55, 0x87, 0x55, 0x00, 0x00, 0x00, 0xc0, 0x27,
   0xe2, 0x01, 0x00, 0x00, 0x00, 0x00, 0x00, 0xff, 0x1f, 0x00, 0x00, 0x00,
   0x00, 0x00, 0x00, 0x00, 0x00, 0x00, 0x00, 0x00, 0x00, 0x00, 0x00, 0xfc,
   0x1f, 0x00, 0x00, 0x00, 0x00, 0x00, 0x00, 0xa8, 0x0a, 0x00, 0x00, 0x00,
   0x00, 0x00, 0x00, 0x50, 0x05, 0x00, 0x00, 0x00, 0x00, 0x00, 0x00, 0xa0,
   0x02, 0x00, 0x00, 0x00, 0x00, 0x00, 0x00, 0x40, 0x01, 0x00, 0x00, 0x00,
   0x00, 0x00, 0x00, 0x80, 0x00, 0x00, 0x00, 0x00 };
