/* XPM */
static char * C:\Users\john\go\src\github_com\JohnDDuncanIII\homepage\assets\weather\sky\heavysnowyfoggy\face_xpm[] = {
"64 64 5 1",
" 	c None",
".	c #000000",
"+	c #FFFFFF",
"@	c #1E90FF",
"#	c #0000FF",
"...+...+.+.+.+.....+.+...+...+.....+...+.+.+.+.....+.+...+...+..",
"..+...+.+.+.+...+...+.+...+...+...+...+.+.+.+...+...+.+...+...+.",
".+...+.+.+.+...+.+...+.+...+...+.+...+.+.+.+...+.+...+.+...+...+",
"+...+...+.+...+.+.+...+.+...+...+...+.+.+.+...+.+.+...+.+...+...",
"...+...+.+...+.+.+.+...+.+...+.....+...+.+...+.+.+.+...+.+...+..",
"..+...+.+...+.+.@@@@@...+.+...+...+...+.+...+.+.+.+.+...+.+...+.",
".+...+.+...+.+.@+++++@...+.+...+.+...+.+...+.+.+.+.+.+...+.+...+",
"+...+.+...+.+.@+++++++@..@@@+...+...+.+...+.+.+.+.+.+.+...+.+...",
"...+.+...+.+.+@++++++++@@+++@+.....+.+...+++.+.+.+.+.+.+...+.+..",
"..+.+...@@..+@+++++++++@+++++@+...+.+...+.+++.+.+.+.+.+.+...+.+.",
".+.+..@@++@@.@++++#+#++++++++@.+.+.+...+++.+++.+.+.+.+++.+...+.+",
"+.+..@++++++@@++#++#++#++++++@@@+.+...+.+++.+++.+.+.+++.+.+...+.",
".+..@+++++++@++++#+#+#++++++++++@+...+++.+++.+++.+.+++.+.+.+...+",
"+...@+++++++@++#++###++#+++++++++@..+.+++.+++.+++.+++.+.+.+.+...",
"...@++++++++++++#######+++++++++++@+.+.+++.+++.+++++.+++.+.+.+..",
"..+@+++++++++++#++###++#++++++++++@.+.+@@@@.+++.+++@@@@@+.+.+.+.",
"...@+++++++++++++#+#+#++++++@+++++@+.@@++++@@+++.@@+++++@@.+.+..",
"+.@+++++++++++++#++#++#+++++@++++@..@++++++++@++@+++++++++@.+...",
".+@+++++++++++++++#+#++++++@.@@@@+.@++++++++++@@+++++++++++@...+",
"+.@++++++@++++++@++++++++++@..+.+.+@+++++++++++@++++#+#++++@..+.",
".+.@+++@@+++++++@+++++++++@..+.+.+@+++++++++++@+++#++#++#+++@+.+",
"+.+.@@@.@+++++++@@+++++++@..+.+.+@+++++++++++++++++#+#+#++++@.+.",
".+...+..@+++++++@+@+++@@@..+.@@@@@+++++++++++++++#++###++#++@..+",
"+...+.+..@+++++@...@@@+...+@@++++@++++++++++++++++#######++++@..",
"...+.+...+@+++@+...+.+.+..@++++++@++++++#+#++++++#++###++#+++@..",
"..+.+...+.+@@@+.+.+.+.+.+@++++++++@+++#++#++#++++++#+#+#+++++@+.",
".+.+...+...+.+.+.+.+.+.+.@+++++++++++++#+#+#++++++#++#++#++++@.+",
"+.+...+.+...+.+.+.@@@@@@@@+++++++++++#++###++#++++++#+#++++++@+.",
".+...+...+...+.+.@+++++++@++++++++++++#######++++++++++++++++@.+",
"+...+.+...+...+.@+++++++++@++++++++++#++###++#++++++++++++@@+@..",
"...+...+...+...@+++++++++++@+++++++++++#+#+#++++++++++++++++@+..",
"..+.+...+...+.@+++++++++++++++++++++++#++#++#++++++++++++++++@+.",
"...+.+...+...+@+++++++++++++++++++++++++#+#++++++++++++++++++@..",
"+...+.@@@@@@..@+++++++++++++++++++++++++++++++++++++++++++++++@.",
".+..@@++++++@@@@++++++++++++#+#++++++++++++++++++++#+#++++++++@+",
"+.+@++++++++++++@@++++++++#++#++#++++++++++++++++#++#++#++++++@.",
".+@++++++++++++++++++++++++#+#+#++++++++++++++++++#+#+#+++++++@+",
"+.@++++++++++++++++++++++#++###++#++++++++++++++#++###++#+++++@.",
".@++++++++++++++++++++++++#######++++++++++++++++#######++++++@+",
"+@++++++++++++#+#++++++++#++###++#++++++++++++++#++###++#+++++@.",
".@++++++++++#++#++#++++++++#+#+#++++++++++++++++++#+#+#+++++++@+",
"@++++++++++++#+#+#++++++++#++#++#++++++++++++++++#++#++#++++++@.",
"@++++++++++#++###++#++++++++#+#++++++++#+#+++++++++#+#++++++++@+",
"@+++++++++++#######++++++++++++++++++#++#++#++++++++++++++++++@.",
"@++++++++++#++###++#++++++++++++++++++#+#+#+++++++++++++++++++@+",
"+@+++++++++++#+#+#++++++++++++++++++#++###++#+++++++++++@++++@..",
".@++++++++++#++#++#+++++#+#++++++++++#######++++++++++++@++++@..",
"..@++@++++++++#+#+++++#++#++#+++++++#++###++#+++++++++++@+++@.+.",
"...@@++++++++++++++++++#+#+#++++++++++#+#+#++++++++++++++@+@...+",
"+.+.@++++++++++++++++#++###++#+++++++#++#++#+++++++++++++@@.+...",
".+..@+++++++++++++++++#######++++++++++#+#+++++++++++++++@...+..",
"....@++++++++++++@+++#++###++#+++++++++++++++++++++++++++@+...+.",
"...+.@+++++++++++@+++++#+#+#++++++++++++++++++@++++++++++@.+...+",
"+.+..@+++++++++++@++++#++#++#+++++++++++++++++@++++++++++@+.+...",
".+...+@++++++++++@++++++#+#++++@++++++++++++@@+++++++++++@.+.+..",
"....+.+@@++++++@@.@+++++++++++@.@+++++++++@@+@++++++++++@.+.+.+.",
"...+.+.+.@@+++@...@+++++++++@@.+.@@@+++@@@.+.+@@++++++++@+.+.+.+",
"+.+.+.+.+..@@@+...+@@++++++@+.+.+.+.@@@.+...+.+.@++++++@+.+.+.+.",
".+.+.+.+.+...+.+.+.+.@@@@@@+.+.+.+.+.+.+.+...+.+.@@@@@@+...+.+.+",
"+.+.+.+.+.+...+.+.+...+.+...+.+.+.+.+.+.+.+...+.+.+...+.+...+.+.",
".+.+...+.+.+...+.+...+...+...+.+.+.+.+.+.+.+...+.+...+...+...+.+",
"+.+...+.+.+.+...+...+.+...+...+.+.+...+.+.+.+...+...+.+...+...+.",
".+...+.+.+.+.+.....+...+...+...+.+...+.+.+.+.+.....+...+...+...+",
"+...+.+.+.+.+.+...+.+...+...+...+...+.+.+.+.+.+...+.+...+...+..."};
