/* XPM */
static char * C:\Users\john\go\src\github_com\JohnDDuncanIII\homepage\assets\portfolio\picons\weather\sky\maybestormyfoggy\face_xpm[] = {
"64 64 5 1",
" 	c #000000",
".	c #FF0000",
"+	c #1E90FF",
"@	c #FFFF00",
"#	c #FFFFFF",
"   #   # # # #     # #   #   #     #   # # # #     # #   #   #  ",
"  #   # # # #   #   # #   #   #   #   # # # #   #   # #   #   # ",
" #   # # # #   # #   # #   #   # #   # # # #   # #   # #   #   #",
"#   #   # #   # # #   # #   #   #   # # # #   # # #   # #   #   ",
"   #   # #   # #+++++  # #   #     #   # #   # # # #   # #   #  ",
"  #   # #   # #+#####+  # #   #   #   # #   # # # # #   # #   # ",
" #   # #   # #+#######+  +++   # #   # #   # # # # # #   # #   #",
"#   # #   # # +########++###+   #   # #   # # # # # # #   # #   ",
"   # #  ++ # +#########+#####+     # #   ### # # # # # #   # #  ",
"  # # ++##++#+###############+#   # #   # ### # # # # # #   # # ",
" # # +######++###############+++ # #   ### ### # # # ### #   # #",
"# # +#######+###################+ #   # ### ### # # ### # #   # ",
" #  +#######+####################+   ### ### ### # ### # # #   #",
"#  +##############################+ # ### ### ### ### # # # #   ",
"   +##############################+# # ++++### ####+++++ # # #  ",
"  #+########################+#####+ #++####++## #++#####++# # # ",
"  +#########################+####+ #+########+##+#########+# #  ",
"# +########################+#++++  +##########++###########+#   ",
" #+######+######+##########+   # # +###########+###########+   #",
"# #+###++#######+#########+   # # +###########+#############+ # ",
" # #+++#+#######++#######+   # # +##########################+# #",
"# # #   +#######+ +###+++   #+++++##########################+ # ",
" #   #   +#####+ # +++ #   ++####+###########################+ #",
"#   # #   +###+     # #   +######+###########################+  ",
"   # #   # +++ #   # # # +########+##########################+  ",
"  # #   # # # # # # # # #+###################################+# ",
" # #   #   # # # #++++++++###################################+ #",
"# #   # #   # # #+#######+###################################+# ",
" #   #   #   # #+#########+#####################+#########++#+ #",
"#   # #   #   #+###########+####################+###########+   ",
"   #   #   #  +################################++############+  ",
"  # #   #   # +###############################+ #############+# ",
"   # #++++++ #+#######################+#######+ ##############+ ",
"#   ++######++++#######################++###++  ##########+###+ ",
" # +############++#####################+@+++@@  ##########+###+#",
"# +########################+##########+@@@@@@@@  #########+###+ ",
" #+#########################++####++++@@@@@@@@@  ########+####+#",
"#+#######....#################++++ @@@@@@@@@@@@  #######+#####+ ",
" +######......####################  @@@@@@@@@@@@  ####++######+#",
"#+#####...##...####################  @@@@@@@@@@@  #+++########+ ",
"+######..####..#####################  @@@@@@@@@@  ############+#",
"+############..#####################+  @@@@@@@@@@  ###########+ ",
"+###########...############+++####++##  @@@@@@@@@  ###########+#",
"+##########...################++++#####  @@@@@@@@  ###########+ ",
" +########...###########################  @@@@@@@@  #########+ #",
"#+########..#############################  @@@@@@@  #########+  ",
" #+##+####..##############################  @@@@@@  ########+#  ",
"   ++#####..###############################  @@@@@@  ######+  # ",
"   #+################################         @@@@@  ######+   #",
"# # +#####..##########################  @@@@@@@@@@@  ##++++ #   ",
" #  +#####..#####+#####################  @@@@@@@@@@@  ##+#   #  ",
"    #+###########+######################  @@@@@@@@@@  #+# #   # ",
"   # +###########+#######################  @@@@       +# # #   #",
"# #   +##########+#############+##########  @@@@  # #   # # #   ",
" #   # ++######++#+###########+ +#####++###  @@@     #   # # #  ",
"    # #  ++###+ # +#########++#  +###+# +###  @@@   # #   # # # ",
"   # # #   +++     ++######+ # #  +++# #       @@  # #   # # # #",
"# # # # #   # #   # #++++++ # # # # # # #  @@@@@@@  #   # # # # ",
" # # # # #   # # # #   #   # # # # # # # #  @@@@@@     #   # # #",
"# # # # # #   # # #   # #   # # # # # # # #  @@       # #   # # ",
" # #   # # #   # #   #   #   # # # # # # # #  @@ #   #   #   # #",
"# #   # # # #   #   # #   #   # # #   # # # #  @    # #   #   # ",
" #   # # # # #     #   #   #   # #   # # # # #     #   #   #   #",
"#   # # # # # #   # #   #   #   #   # # # # # #   # #   #   #   "};
