/* XPM */
static char * C:\Users\john\go\src\github_com\JohnDDuncanIII\homepage\assets\weather\sky\snowyfoggy\face_xpm[] = {
"64 64 3 1",
" 	c #000000",
".	c #FFFFFF",
"+	c #1E90FF",
"   .   . . . .     . .   .   .     .   . . . .     . .   .   .  ",
"  .   . . . .   .   . .   .   .   .   . . . .   .   . .   .   . ",
" .   . . . .   . .   . .   .   . .   . . . .   . .   . .   .   .",
".   .   . .   . . .   . .   .   .   . . . .   . . .   . .   .   ",
"   .   . .   . . . .   . .   .     .   . .   . . . .   . .   .  ",
"  .   . .   . . +++++   . .   .   .   . .   . . . . .   . .   . ",
" .   . .   . . +.....+   . .   . .   . .   . . . . . .   . .   .",
".   . .   . . +.......+  +++.   .   . .   . . . . . . .   . .   ",
"   . .   . . .+........++...+.     . .   ... . . . . . .   . .  ",
"  . .   ++  .+.........+.....+.   . .   . ... . . . . . .   . . ",
" . .  ++..++ +...............+ . . .   ... ... . . . ... .   . .",
". .  +......++...............+++. .   . ... ... . . ... . .   . ",
" .  +.......+...................+.   ... ... ... . ... . . .   .",
".   +.......+....................+  . ... ... ... ... . . . .   ",
"   +..............................+. . ... ... ..... ... . . .  ",
"  .+..............................+ . .++++ ... ...+++++. . . . ",
"   +........................+.....+. ++....++... ++.....++ . .  ",
". +.........................+....+  +........+..+.........+ .   ",
" .+........................+ ++++. +..........++...........+   .",
". +......+......+..........+  . . .+...........+...........+  . ",
" . +...++.......+.........+  . . .+...........+.............+. .",
". . +++ +.......++.......+  . . .+..........................+ . ",
" .   .  +.......+.+...+++  . +++++..........................+  .",
".   . .  +.....+   +++.   .++....+...........................+  ",
"   . .   .+...+.   . . .  +......+...... . ..................+  ",
"  . .   . .+++. . . . . .+........+... .. .. ................+. ",
" . .   .   . . . . . . . +............. . . .................+ .",
". .   . .   . . . ++++++++........... ..   .. ...............+. ",
" .   .   .   . . +.......+............       ................+ .",
".   . .   .   . +.........+.......... ..   .. ............++.+  ",
"   .   .   .   +...........+........... . . ................+.  ",
"  . .   .   . +....................... .. .. ................+. ",
"   . .   .   .+......................... . ..................+  ",
".   . ++++++  +...............................................+ ",
" .  ++......++++............ . .................... . ........+.",
". .+............++........ .. .. ................ .. .. ......+ ",
" .+........................ . . .................. . . .......+.",
". +...................... ..   .. .............. ..   .. .....+ ",
" +........................       ................       ......+.",
".+............ . ........ ..   .. .............. ..   .. .....+ ",
" +.......... .. .. ........ . . .................. . . .......+.",
"+............ . . ........ .. .. ................ .. .. ......+ ",
"+.......... ..   .. ........ . ........ . ......... . ........+.",
"+...........       .................. .. .. ..................+ ",
"+.......... ..   .. .................. . . ...................+.",
".+........... . . .................. ..   .. ...........+....+  ",
" +.......... .. .. ..................       ............+....+  ",
"  +..+........ . ................... ..   .. ...........+...+ . ",
"   ++................................. . . ..............+.+   .",
". . +................................ .. .. .............++ .   ",
" .  +.................................. . ...............+   .  ",
"    +............+.......................................+.   . ",
"   . +...........+............................+..........+ .   .",
". .  +...........+............................+..........+. .   ",
" .   .+..........+.............+............++...........+ . .  ",
"    . .++......++ +...........+ +.........++.+..........+ . . . ",
"   . . . ++...+   +.........++ . +++...+++ . .++........+. . . .",
". . . . .  +++.   .++......+. . . . +++ .   . . +......+. . . . ",
" . . . . .   . . . . ++++++. . . . . . . .   . . ++++++.   . . .",
". . . . . .   . . .   . .   . . . . . . . .   . . .   . .   . . ",
" . .   . . .   . .   .   .   . . . . . . . .   . .   .   .   . .",
". .   . . . .   .   . .   .   . . .   . . . .   .   . .   .   . ",
" .   . . . . .     .   .   .   . .   . . . . .     .   .   .   .",
".   . . . . . .   . .   .   .   .   . . . . . .   . .   .   .   "};
