/* XPM */
static char * C:\Users\john\go\src\github_com\JohnDDuncanIII\homepage\assets\portfolio\picons\weather\sky\rainyfoggy\face_xpm[] = {
"64 64 5 1",
" 	c None",
".	c #000000",
"+	c #0000FF",
"@	c #1E90FF",
"#	c #FFFFFF",
"...#...#.#.#.#.....#.#...#...#.....#...#.#.#.#.....#.#...#...#..",
"..#...#.#.#.#...#...#.#...#...#...#...#.#.#.#...#...#.#...#...#.",
".#...#.#.#.#...#.#...#.#...#...#.#...#.#.#.#...#.#...#.#...#...#",
"#...#...#.#...#.#.#...#.#...#...#...#.#.#.#...#.#.#...#.#...#...",
"...#...#.#...#.#@@@@@..#.#...#.....#...#.#...#.#.#.#...#.#...#..",
"..#...#.#...#.#@#####@..#.#...#...#...#.#...#.#.#.#.#...#.#...#.",
".#...#.#...#.#@#######@..@@@...#.#...#.#...#.#.#.#.#.#...#.#...#",
"#...#.#...#.#.@########@@###@...#...#.#...#.#.#.#.#.#.#...#.#...",
"...#.#..@@.#.@#########@#####@.....#.#...###.#.#.#.#.#.#...#.#..",
"..#.#.@@##@@#@###############@#...#.#...#.###.#.#.#.#.#.#...#.#.",
".#.#.@######@@###############@@@.#.#...###.###.#.#.#.###.#...#.#",
"#.#.@#######@###################@.#...#.###.###.#.#.###.#.#...#.",
".#..@#######@####################@...###.###.###.#.###.#.#.#...#",
"#..@##############################@.#.###.###.###.###.#.#.#.#...",
"...@##############################@#.#.@@@@###.####@@@@@.#.#.#..",
"..#@########################@#####@.#@@####@@##.#@@#####@@#.#.#.",
"..@#########################@####@.#@########@##@#########@#.#..",
"#.@########################@#@@@@..@##########@@###########@#...",
".#@######@######@##########@...#.#.@###########@###########@...#",
"#.#@###@@#######@#########@...#.#.@#####+#####@#############@.#.",
".#.#@@@#@#######@@#######@...#.#.@######+###################@#.#",
"#.#.#...@#######@.@###@@@...#@@@@@######+###################@.#.",
".#...#...@#####@.#.@@@.#...@@####@#####+++###################@.#",
"#...#.#...@###@.....#.#...@######@#####+++###################@..",
"...#.#...#.@@@.#...#.#.#.@########@###+++++##################@..",
"..#.#...#.#.#.#.#.#.#.#.#@############+++++##################@#.",
".#.#...#...#.#.#.#@@@@@@@@###########+++++++#################@.#",
"#.#...#.#...#.#.#@#######@###########++++#++#################@#.",
".#...#...#...#.#@#########@##########++++#++##############@@#@.#",
"#...#.#...#...#@###########@#########+++#+++################@...",
"...#...#...#..@#######################+++++########+#########@..",
"..#.#...#...#.@########################+++#########+#########@#.",
"...#.#@@@@@@.#@####################################+##########@.",
"#...@@######@@@@#########+########################+++#########@.",
".#.@############@@#######+########################+++#########@#",
"#.@######################+#######################++++#########@.",
".#@#####################+++######################+++++########@#",
"#@######################+++######################+++++########@.",
".@#####################++++#####################++#++++#######@#",
"#@####################+++++###########+#########++#++++#######@.",
"@#####################+++++###########+#########+++#+++#######@#",
"@####################+++++++##########+##########+++++########@.",
"@####################++#++++#########+++##########+++#########@#",
"@###################+++#+++++########+++######################@.",
".@##################++#++++++#######++++################@####@.#",
"#@##################++#++++++#######+++++###############@####@..",
".#@##@##############+++##++++#######+++++###############@###@#..",
"...@@################+++++++#######++++#++###############@#@..#.",
"...#@#################+++++########++++#++###############@@#...#",
"#.#.@##############################+++#+++###############@..#...",
".#..@############@##################+++++################@...#..",
"....#@###########@###################+++######@##########@#...#.",
"...#.@###########@############################@##########@.#...#",
"#.#...@##########@#############@############@@###########@#.#...",
".#...#.@@######@@#@###########@.@#########@@.@##########@#.#.#..",
"....#.#..@@###@.#.@#########@@#..@@@###@@@#.#.@@########@.#.#.#.",
"...#.#.#...@@@.....@@######@.#.#...#@@@#...#.#..@######@.#.#.#.#",
"#.#.#.#.#...#.#...#.#@@@@@@.#.#.#.#.#.#.#...#.#..@@@@@@.#.#.#.#.",
".#.#.#.#.#...#.#.#.#...#...#.#.#.#.#.#.#.#...#.#.#.#...#...#.#.#",
"#.#.#.#.#.#...#.#.#...#.#...#.#.#.#.#.#.#.#...#.#.#...#.#...#.#.",
".#.#...#.#.#...#.#...#...#...#.#.#.#.#.#.#.#...#.#...#...#...#.#",
"#.#...#.#.#.#...#...#.#...#...#.#.#...#.#.#.#...#...#.#...#...#.",
".#...#.#.#.#.#.....#...#...#...#.#...#.#.#.#.#.....#...#...#...#",
"#...#.#.#.#.#.#...#.#...#...#...#...#.#.#.#.#.#...#.#...#...#..."};
