/* XPM */
static char * C:\Users\john\Desktop\face_xpm[] = {
"48 48 16 1",
" 	c None",
".	c #000000",
"+	c #D2B48C",
"@	c #F5F5DC",
"#	c #00FF00",
"$	c #F5DEB3",
"%	c #DCDCDC",
"&	c #CD853F",
"*	c #BEBEBE",
"=	c #2F4F4F",
"-	c #FF0000",
";	c #000080",
">	c #FFFFFF",
",	c #FFFF00",
"'	c #708090",
")	c #0000FF",
"                   ...........                  ",
"                  ..---------.                  ",
"                 ...---------.                  ",
"                 ...---------.                  ",
"                 ...---------.                  ",
"                 ...---------.                  ",
"                 .....-----...                  ",
"                 .....-----..                   ",
"       ...............-----.   ...........      ",
"      ..---------. ...-----.  ..---------.      ",
"     ...---------. ...-----. ...---------.      ",
"     ...---------. ...-----. ...---------.      ",
"     ...---------. ...-----. ...---------.      ",
"     ...---------. ...-----. ...---------.      ",
"     .....-----... ...-----. .....-----...      ",
"     .....-----..  ...-----. .....-----..       ",
"     .....-----.   ...-----. .....-----.        ",
"       ...-----.   ...-----.   ...-----.        ",
"   ..........................................   ",
"  ..>>>>>>>>>>>>>>>>>>>>>>>>>>>>>>>>>>>>>>>>.   ",
"  ..>>.....>>>>>>>>>>>>>>>>>>>>>>...>>>>>>.>.   ",
"  ..>..>>>.>>>>>>>>>>>>>>>>>>>>>.>>.>>>>>>>>.   ",
"  ..>.>>>>>>>..>>...>..>>...>>>>..>>>>..>..>.   ",
"  ..>.>>>>>>.>>.>.>>.>>.>.>>.>>>>..>>.>>>>.>.   ",
"  ..>.>>>>>>.>>.>.>>.>>.>.>>.>>>>>>.>.>>>>.>.   ",
"  ..>..>>>.>.>>.>.>>.>>.>.>>.>>>.>>.>.>>>>.>.   ",
"  ..>>....>>>..>>..>..>.....>>>>...>>>..>>.>.   ",
"  ..>>>>>>>>>>>>>>>>>>>>>.>>>>>>>>>>>>>>>>>>.   ",
"  ...........................................   ",
"  ..........................................    ",
"       ...-----.   ...-----.   ....----.        ",
"       ...-----.......-----.......-----.        ",
"       ....--------...-----.----------..        ",
"       .....-------...-----.---------..         ",
"        .....------...-----.--------..          ",
"         .....-----...-----.-------..           ",
"          .....----...-----.------..            ",
"           ...........-----........             ",
"            ..........-----.......              ",
"             .........-----......               ",
"                  ..---------.                  ",
"                 ...---------.                  ",
"                 ...---------.                  ",
"                 ...---------.                  ",
"                 ...---------.                  ",
"                 .............                  ",
"                 ............                   ",
"                 ...........                    "};
