/* XPM */
static char * C:\Users\john\Desktop\gov\cftc\unknown\face_xpm[] = {
"48 45 5 1",
" 	c None",
".	c #000000",
"+	c #0000FF",
"@	c #FF0000",
"#	c #808080",
"                      +++                       ",
"                   +++++++++                    ",
"                  ++++++++++++                  ",
"               ++++++      ++++++               ",
"            ++++++    @@@@   ++++++             ",
"         +++++++    @@@@@@@@   +++++++          ",
"       +++++++    @@@@@@@@@@@@    ++++++        ",
"      +++++    @@@@@@@    @@@@@@@    +++++      ",
"      +++   @@@@@@     .      @@@@@@   +++      ",
"      ++  @@@@@@@      .        @@@@@@  ++      ",
"     +++  @@@@         .          @@@@@ +++     ",
"     ++  @@@          ...           @@@  ++     ",
"    +++  @@           ...            @@@ +++    ",
"    ++  @@@          . . .            @@  ++    ",
"   +++  @@           . . .            @@@ ++    ",
"   +++ @@@          .  .  .            @@ +++   ",
"   ++  @@@          .  .  .            @@@ ++   ",
"  +++  @@          .   .   .           @@@ +++  ",
"  +++ @@@          .   .   .            @@ +++  ",
" +++  @@          .    .    .           @@  +++ ",
" +++  @@          .    .    .            @@ +++ ",
"+++  @@@         .     .     .           @@  +++",
"+++  @@          .     .     .           @@  +++",
" ++  @@@        .      .      .          @@  +++",
" +++  @@        .      .      .          @@ +++ ",
"  ++  @@@      .       .       .        @@  +++ ",
"  +++ @@@      .       .       .        @@ +++  ",
"  +++  @@@    .        .        .      @@@ +++  ",
"   +++ @@@    .        .        .      @@  ++   ",
"   +++  @@   .         .         .    @@@ +++   ",
"    ++  @@@  .         .         .    @@  +++   ",
"    +++ @@@  .....................   @@@  ++    ",
"     ++  @@@  ...................#   @@@ +++    ",
"     +++ @@@    ................    @@@  ++     ",
"      ++  @@@@@   ............    @@@@@ +++     ",
"      +++  @@@@@@              @@@@@@@  ++      ",
"      +++    @@@@@@           @@@@@    +++      ",
"       +++++    @@@@@@@   @@@@@@    ++++++      ",
"        +++++++   @@@@@@@@@@@@    +++++++       ",
"          +++++++    @@@@@@    +++++++          ",
"             ++++++     @    ++++++             ",
"                ++++++    +++++++               ",
"                  ++++++++++++                  ",
"                    ++++++++                    ",
"                       ++                       "};
