/* XPM */
static char * C:\Users\john\go\src\github_com\JohnDDuncanIII\homepage\assets\weather\sky\obscured\face_xpm[] = {
"64 64 6 1",
" 	c #000000",
".	c #E6E6FA",
"+	c #DCDCDC",
"@	c #BEBEBE",
"#	c #FFFFFF",
"$	c #708090",
"                                                                ",
"                                                                ",
"                                                                ",
"                                                                ",
"               $$$$$                                            ",
"              $#####$                                           ",
"             $#######$  $$$                                     ",
"             $########$$###$                                    ",
"       $$   $#########$#####$                                   ",
"     $$##$$ $###############$#####.@@$$                         ",
"    $######$$###############$$$.##..++@@$                       ",
"   $#######$###################$$@@@@@@+++$                     ",
"   $#######$####################$@@@$$$$@++@$                   ",
"  $##############################$+@@@@$$@++@$                  ",
"  $##############################$+@@@@@@@+++@$                 ",
"  $########################$#####$+++.@$@@@@+@$$$               ",
" $#########################$####$@@+++@@$@$@$$$$$               ",
" $########################$$$$$$@$$+$$$$$$$$#####$              ",
" $######$######$##########$$$$$$@@$@$$$$$$$#######$  $$$        ",
"  $###$$#######$#########$$$$$$$@@$$$$$$$$$########$$###$       ",
"   $$$ $#######$$#######$$$$$$@@$$@$$$$$$$#########$#####$      ",
"       $#######$@$###$$$$$$$$$$@+@$$##$$$$###############$      ",
"        $#####$$$$$$$$$$$$$$$$$@+$######$$###############$$$    ",
"         $###$$$$$@$$@@@$$$$@$@@$#######$###################$   ",
"          $$$$$$$$$$$@+++@@@$$$$$#######$####################$  ",
"         $@$$$$$$$@@$@..#+@@@$$$##############################$ ",
"         $+$$$$$$@.@$$+.#+@@$$$$##############################$ ",
"         @+$$$$$$@+@@@+@@@$$$$@$########################$#####$ ",
"         @.@$$$$$$@$@$@+@$$$$$$#########################$####$  ",
"         @.$$$$$$$$$$@@++@$$$$$########################$ $$$$   ",
"         @.$$$$#####$@$@@@$$$@$######$######$##########$        ",
"         @@@$$#######$$$$$$@++.$###$$#######$#########$         ",
"         @$.$$########$$###$.+.#$$$#$#######$$#######$$         ",
"       $$@++$#########$#####$+++.###$#######$@$###$$$$$         ",
"     $$##$$.$###############$+++.+###$#####$@+$$$$$$$$$         ",
"    $######$$###############$$$++....#$###$$$@@$$$$@$$$         ",
"   $#######$###################$...#...$$$@$$$@$$$$@$$$         ",
"   $#######$####################$##..+..##$$$@@@$$$$@$$         ",
"  $##############################$+....+.#@$$@@$$$$$$$          ",
"  $##############################$.##.++..+@$$$$$$$$$$          ",
"  $########################$#####$##.++.#.@$#####$$$@$          ",
" $#########################$####$###++#...$#######$@$$$$        ",
" $########################$#$$$$###..#.++.$########$$###$       ",
" $######$######$##########$#########$$.#+$#########$#####$      ",
"  $###$$#######$#########$########$$##$$@$###############$      ",
"   $$$ $#######$$#######$########$######$$###############$$$    ",
"       $#######$+$###$$$########$#######$###################$   ",
"        $#####$$@+$$$+#.########$#######$####################$  ",
"         $###$ $$@+@@+++.######$##############################$ ",
"          $$$    $@+@@+..######$##############################$ ",
"                  $@+..+.######$########################$#####$ ",
"                   $@.....####$#########################$####$  ",
"                     $@.#..###$########################$ $$$$   ",
"                       $@@++##$######$######$##########$        ",
"                         $$$$@@$###$$#######$#########$         ",
"                                $$$ $#######$$#######$          ",
"                                    $#######$ $###$$$           ",
"                                     $#####$   $$$              ",
"                                      $###$                     ",
"                                       $$$                      ",
"                                                                ",
"                                                                ",
"                                                                ",
"                                                                "};
