#define face_width 48
#define face_height 48
static unsigned char face_bits[] = {
   0x00, 0x00, 0x00, 0x00, 0x00, 0x00, 0x00, 0x00, 0x00, 0x00, 0x00, 0x00,
   0x00, 0x00, 0x00, 0x00, 0x00, 0x00, 0x00, 0x00, 0x00, 0x00, 0x00, 0x00,
   0x00, 0x00, 0x00, 0x00, 0x00, 0x00, 0x00, 0x00, 0x00, 0x00, 0x00, 0x00,
   0x78, 0x01, 0x00, 0x00, 0x0e, 0xc0, 0x8e, 0x01, 0x00, 0x00, 0x0c, 0xc0,
   0x06, 0x01, 0x00, 0x00, 0x0c, 0xc0, 0x07, 0xf0, 0x70, 0xf8, 0x8d, 0xc7,
   0x03, 0x98, 0xd9, 0xcd, 0xcc, 0x4c, 0xe3, 0x9f, 0x8d, 0xcd, 0xcc, 0x0f,
   0xc7, 0x9d, 0x8d, 0x79, 0xcc, 0x00, 0xc6, 0x99, 0xdd, 0x0d, 0xcc, 0xc9,
   0xfc, 0xf1, 0xf8, 0xfc, 0x9e, 0xc7, 0x00, 0x00, 0x00, 0xfc, 0x00, 0x00,
   0x00, 0x00, 0x00, 0x84, 0x00, 0x00, 0x00, 0x00, 0x00, 0x78, 0x00, 0x00,
   0x00, 0x00, 0x00, 0x00, 0x00, 0x00, 0x00, 0x00, 0x00, 0x00, 0x00, 0x00,
   0x00, 0x00, 0x00, 0x00, 0x00, 0x00, 0x00, 0x00, 0x00, 0x00, 0x00, 0x00,
   0x00, 0x00, 0x00, 0x00, 0x00, 0x00, 0x00, 0x00, 0x00, 0x00, 0x00, 0x00,
   0xfe, 0xff, 0xff, 0xff, 0xff, 0x7f, 0x02, 0x00, 0x00, 0x00, 0x00, 0x40,
   0x02, 0x00, 0x00, 0x00, 0x00, 0x40, 0x22, 0x92, 0x24, 0x49, 0x92, 0x44,
   0x02, 0x00, 0x00, 0x00, 0x00, 0x40, 0xfe, 0xff, 0xff, 0xff, 0xff, 0x7f,
   0x00, 0x00, 0x00, 0x00, 0x00, 0x00, 0x00, 0x00, 0x00, 0x00, 0x00, 0x00,
   0x00, 0x00, 0x00, 0x00, 0x00, 0x00, 0x00, 0x0f, 0x00, 0x00, 0x00, 0x00,
   0x80, 0x1f, 0x00, 0x00, 0x00, 0x00, 0xc0, 0xd9, 0x73, 0xb6, 0xc7, 0x01,
   0xc0, 0xc0, 0xfb, 0xb6, 0xef, 0x03, 0xc0, 0xdc, 0xd8, 0xb6, 0x6d, 0x03,
   0xc0, 0xdc, 0xd8, 0xb6, 0xcd, 0x01, 0xc0, 0xd9, 0xd8, 0xb6, 0x6d, 0x03,
   0x80, 0xdf, 0xf8, 0xbe, 0xef, 0x03, 0x00, 0xdf, 0x70, 0xbc, 0xc7, 0x01,
   0x00, 0x00, 0x00, 0x80, 0x01, 0x00, 0x00, 0x00, 0x00, 0x80, 0x01, 0x00,
   0x00, 0x00, 0x00, 0x80, 0x01, 0x00, 0x00, 0x00, 0x00, 0x00, 0x00, 0x00,
   0x00, 0x00, 0x00, 0x00, 0x00, 0x00, 0x00, 0x00, 0x00, 0x00, 0x00, 0x00 };
