/* XPM */
static char * C:\Users\john\go\src\github_com\JohnDDuncanIII\homepage\assets\portfolio\picons\weather\sky\foggy\face_xpm[] = {
"64 64 2 1",
" 	c #FFFFFF",
".	c #000000",
"... ... . . . ..... . ... ... ..... ... . . . ..... . ... ... ..",
".. ... . . . ... ... . ... ... ... ... . . . ... ... . ... ... .",
". ... . . . ... . ... . ... ... . ... . . . ... . ... . ... ... ",
" ... ... . ... . . ... . ... ... ... . . . ... . . ... . ... ...",
"... ... . ... . . . ... . ... ..... ... . ... . . . ... . ... ..",
".. ... . ... . . . . ... . ... ... ... . ... . . . . ... . ... .",
". ... . ... . . . . . ... . ... . ... . ... . . . . . ... . ... ",
" ... . ... . . . . . . ... . ... ... . ... . . . . . . ... . ...",
"... . ... . . . . . . . ... . ..... . ...   . . . . . . ... . ..",
".. . ... ... . . . . . . ... . ... . ... .   . . . . . . ... . .",
". . ... . ... . . . . . . ... . . . ...   .   . . . .   . ... . ",
" . ... ... ... . . . ... . ... . . ... .   .   . . .   . . ... .",
". ... . ... ... . . ... . . ... . ...   .   .   . .   . . . ... ",
" ... ... ... ... . ... . . . ... ... .   .   .   .   . . . . ...",
"... . ... ... ... ... . . . . ..... . .   .   .     .   . . . ..",
".. . . ... ... ..... ... . . . ... . . .   .   .   .   . . . . .",
"... . . ... ... ... ... . . . ..... . . .   .   . .   . . . . ..",
" ... . . ... ... . ... . . . ... ... . . .   .   .   . . . . ...",
". ... . . ... ... ... . . . ... . ... . . .   .     .   . . ... ",
" . ... . . ... ..... ... . ... . . ... . . .   .   .   . . ... .",
". . ... . . ... ... ... . ... . . . ... . . .   . .   . . ... . ",
" . . ... . . ... . ... . ... . . . . ... . . .   .   . . ... . .",
". ... ... . . ... ... . ... ... . ... ... . . .     . . ... ... ",
" ... . ... . . ..... . ... . ... ... . ... . . .   . . ... . ...",
"... . ... . . . ... . . ... . ..... . ... . . . . . . . ... . ..",
".. . ... . . . . . . . . ... . ... . ... . . . . . . . . ... . .",
". . ... ... . . . . . . . ... . . . ... ... . . . . . . . ... . ",
" . ... . ... . . . . ... . ... . . ... . ... . . . . . . . ... .",
". ... ... ... . . . ... . . ... . ... ... ... . . . ... . . ... ",
" ... . ... ... . . ... . . . ... ... . ... ... . . ... . . . ...",
"... ... ... ... . ... . . . . ..... ... ... ... . ... . . . . ..",
".. . ... ... ... ... ... . . . ... . ... ... ... ... . . . . . .",
"... . ... ... ..... ... . . . ..... . ... ... ..... ... . . . ..",
" ... . ... ... ... ... . . . ... ... . ... ... ... ... . . . ...",
". ... . ... ... . ... . . . ... . ... . ... ... . ... . . . ... ",
" . ... . ... ... ... ... . ... . . ... . ... ... ... . . . ... .",
". . ... . ... ..... ... . ... . . . ... . ... ..... ... . ... . ",
" . . ... . ... ... ... . ... . . . . ... . ... ... ... . ... . .",
". . . ... . ... . ... . ... . . . . . ... . ... . ... . ... . . ",
" . . . ... . ... ... . ... . . . . . . ... . ... ... . ... . . .",
". . . . ... . ..... . ... . . . . . . . ... . ..... . ... . . . ",
" . . . . ... . ... . ... ... . . . . . . ... . ... . ... ... . .",
". . . . . ... . . . ... . ... . . . . . . ... . . . ... . ... . ",
" . . ... . ... . . ... ... ... . . . ... . ... . . ... ... ... .",
". . ... . . ... . ... . ... ... . . ... . . ... . ... . ... ... ",
" . ... . . . ... ... ... ... ... . ... . . . ... ... ... ... ...",
". ... . . . . ..... . ... ... ... ... . . . . ..... . ... ... ..",
".... ... . . . ... . . ... ... ..... ... . . . ... . . ... ... .",
"... ... . . . ..... . . ... ... ... ... . . . ..... . . ... ... ",
" . ... . . . ... ... . . ... ... . ... . . . ... ... . . ... ...",
". ... . . . ... . ... . . ... ... ... . . . ... . ... . . ... ..",
".... ... . ... . . ... . . ... ..... ... . ... . . ... . . ... .",
"... ... . ... . . . ... . . ... ... ... . ... . . . ... . . ... ",
" . ... . ... . . . . ... . . ... . ... . ... . . . . ... . . ...",
". ... . ... ... . ... ... . . ... ... . ... ... . ... ... . . ..",
".... . ... . ... ... . ... . . ..... . ... . ... ... . ... . . .",
"... . . ... . ..... . ... . . . ... . . ... . ..... . ... . . . ",
" . . . . ... . ... . ... . . . . . . . . ... . ... . ... . . . .",
". . . . . ... . . . ... ... . . . . . . . ... . . . ... ... . . ",
" . . . . . ... . . ... . ... . . . . . . . ... . . ... . ... . .",
". . ... . . ... . ... ... ... . . . . . . . ... . ... ... ... . ",
" . ... . . . ... ... . ... ... . . ... . . . ... ... . ... ... .",
". ... . . . . ..... ... ... ... . ... . . . . ..... ... ... ... ",
" ... . . . . . ... . ... ... ... ... . . . . . ... . ... ... ..."};
