/* XPM */
static char * C:\Users\john\go\src\github_com\JohnDDuncanIII\homepage\assets\portfolio\picons\weather\sky\heavyrainy\face_xpm[] = {
"64 64 4 1",
" 	c #1E90FF",
".	c #BEBEBE",
"+	c #FFFFFF",
"@	c #0000FF",
"................................................................",
"................................................................",
"................................................................",
"................................................................",
"................     ...........................................",
"............... +++++ ..........................................",
".............. +++++++ ..   ....................................",
".............. +++@++++  +++ ...................................",
"........  ... ++++@++++ +++++ ..................................",
"......  ++  . +++@@@+++++++++ ..................................",
"..... ++++++  ++++@++++++++++   ................................",
".... +++++++ +++++++++++@+++++++ ...............................",
".... +++@+++ +++++++++++@++++++++ ..............................",
"... ++++@++++++++++++++@@@++++++++ .............................",
"... +++@@@+++++++++@++++@+++++++++ ....    ........     ........",
"... ++++@++++++++++@++++++++ +++++ ..  ++++  ....  +++++  ......",
".. ++++++++++@++++@@@+++++++ ++++ .. ++++++++ .. +++++++++ .....",
".. ++++++++++@+++++@+++++++ .    .. ++++++++++  +++++++++++ ....",
".. ++++++ ++@@@+ ++++++++++ ....... +++++++++++ +++@+++++++ ....",
"... +++  ++++@++ +++++++++ ....... +++++@+++++ ++++@++++++++ ...",
"....   . +++++++  +++++++ ....... ++++++@+++++++++@@@+++++++ ...",
"........ +++++++ . +++   ....     ++++++@++++++++++@++++++++ ...",
"......... +++++ ...   .....  ++++ +++++@@@+++++++++++++++++++ ..",
".......... +++ ........... ++++++ +++++@@@+++++@+++++++++++++ ..",
"...........   ........... ++++++++ +++@@@@@++++@+++++++++++++ ..",
"......................... ++++@+++++++@@@@@+++@@@+++++@++++++ ..",
"..................        ++++@++++++@@@@@@@+++@++++++@++++++ ..",
"................. +++++++ +++@@@+++++@@@@+@@+++++++++@@@+++++ ..",
"................ +++++++++ +++@++++++@@@@+@@++++++++++@+++  + ..",
"............... ++++++@++++ +++++++++@@@+@@@++++++++++++++++ ...",
".............. +++++++@+++++++++++++++@@@@@++++++++@+++++++++ ..",
".............. ++++++@@@++++++++@++++++@@@++++@++++@+++++++++ ..",
"......      .. +++++++@+++++++++@+++++++++++++@++++@++++++++++ .",
"....  ++++++    +++++++++@+++++@@@+++++++++++@@@++@@@+++++++++ .",
"... ++++++++++++  +++++++@++++++@+++++++@+++++@+++@@@+++++++++ .",
".. ++++++++++++++++++++++@++++++++++++++@++++++++@@@@+++++@+++ .",
".. ++++++++++@++++++++++@@@++++++++++++@@@+++++++@@@@@++++@+++ .",
". +++++@+++++@++++++++++@@@+++++++++++++@++++++++@@@@@+++@@@++ .",
". +++++@++++@@@++++++++@@@@++++++@++++++++++++++@@+@@@@+++@+++ .",
". ++++@@@++++@++++++++@@@@@++++++@++++@+++++++++@@+@@@@+++++++ .",
" ++++++@++++++++++++++@@@@@+++++@@@+++@+++++++++@@@+@@@+++++++ .",
" ++++++++++++++++++++@@@@@@@+++++@++++@++++++++++@@@@@++++++++ .",
" ++++++++++++++++++++@@+@@@@+++++++++@@@++++++++++@@@+++++++++ .",
" +++++++++++++++++++@@@+@@@@@++++++++@@@+++++++@++++++++++++++ .",
". ++++++++++++++@+++@@+@@@@@@+++++++@@@@+++++++@++++++++ ++++ ..",
". ++++++++++++++@+++@@+@@@@@@+++++++@@@@@+++++@@@+++++++ ++++ ..",
".. ++ +++++++++@@@++@@@++@@@@+++++++@@@@@++++++@++++++++ +++ ...",
"...  +++++@+++++@++++@@@@@@@++@++++@@@@+@@+++++++++++++++ + ....",
".... +++++@+++++++++++@@@@@+++@++++@@@@+@@+++++++++++++++  .....",
".... ++++@@@+++++++++++++++++@@@+++@@@+@@@++++++++++@++++ ......",
".... +++++@++++++ ++++@+++++++@+++++@@@@@+++++++++++@++++ ......",
"..... +++++++++++ ++++@++++++++++++++@@@++++++ ++++@@@+++ ......",
"..... +++++++++++ +++@@@++++++++++++++++++++++ +++++@++++ ......",
"...... ++++++++++ ++++@++++++++ ++++++++++++  +++++++++++ ......",
".......  ++++++  . +++++++++++ . +++++++++  . ++++++++++ .......",
".........  +++ ... +++++++++  ...   +++   ....  ++++++++ .......",
"...........   .....  ++++++ ........   ......... ++++++ ........",
".....................      ......................      .........",
"................................................................",
"................................................................",
"................................................................",
"................................................................",
"................................................................",
"................................................................"};
