/* XPM */
static char * C:\Users\john\Desktop\face_xpm[] = {
"64 64 5 1",
" 	c #FFA500",
".	c #0000FF",
"+	c #FFFFFF",
"@	c #000000",
"#	c #1E90FF",
"                                                                ",
" .+...+@+@+@+@@@+@@@+@+...+...+...+...+@+@+@+@@@+@@@+@+...+...+ ",
" +...+.+@+@+@@@+@+@@@+@+...+...+.+...+@+@+@+@@@+@+@@@+@+...+... ",
" ...+...+@+@@@+@+@+@@@+@+...+...+...+.+@+@+@@@+@+@+@@@+@+...+.. ",
" ..+...+@+@@@+@+@+@+@@@+@+...+.....+...+@+@@@+@+@+@+@@@+@+...+. ",
" .+...+@+@@@+@+@+@+@+@@@+@+...+...+...+@+@@@+@+@+@+@+@@@+@+...+ ",
" +...+@+@@@+@+@+@+@+@+@@@+@+...+.+...+@+@@@+@+@+@+@+@+@@@+@+... ",
" ...+@+@@@+@+@+@+@+@+@+@@@+@+...+...+@+@@@+@+@+@+@+@+@+@@@+@+.. ",
" ..+@+@@@+#+@+@+@+@+@+@+@@@+@+.....+@+@@@+++@+@+@+@+@+@+@@@+@+. ",
" .+@+@@@+###+@+@+@+@+@+@+@@@+@+...+@+@@@+@+++@+@+@+@+@+@+@@@+@+ ",
" +@+@@@+#+###+@+@+@+@+#+@+@@@+@+.+@+@@@+++@+++@+@+@+@+++@+@@@+@ ",
" @+@@@+###+###+@+@+@+###+@+@@@+@+@+@@@+@+++@+++@+@+@+++@+@+@@@+ ",
" +@@@+#+###+###+@+@+###+@+@+@@@+@+@@@+++@+++@+++@+@+++@+@+@+@@@ ",
" @@@+###+###+###+@+###+@+@+@+@@@+@@@+@+++@+++@+++@+++@+@+@+@+@@ ",
" @@+@+###+###+###+###+#+@+@+@+@@@@@+@+@+++@+++@+++++@+++@+@+@+@ ",
" @+@+@+###+###+#####+###+@+@+@+@@@+@+@+@+++@+++@+++@+++@+@+@+@+ ",
" @@+@+@+###+###+###+###+@+@+@+@@@@@+@+@+@+++@+++@+@+++@+@+@+@+@ ",
" @@@+@+@+###+###+#+###+@+@+@+@@@+@@@+@+@+@+++@+++@+++@+@+@+@+@@ ",
" +@@@+@+@+###+###+###+#+@+@+@@@+@+@@@+@+@+@+++@+++++@+++@+@+@@@ ",
" @+@@@+@+@+###+#####+###+@+@@@+@+@+@@@+@+@+@+++@+++@+++@+@+@@@+ ",
" +@+@@@+@+@+###+###+###+@+@@@+@+@+@+@@@+@+@+@+++@+@+++@+@+@@@+@ ",
" @+.+@@@+@+@+###+#+###+@+@@@+#+@+@+#+@@@+@+@+@+++@+++@+@+@@@+.+ ",
" +...+@@@+@+@+###+###+@+@@@+###+@+###+@@@+@+@+@+++++@+@+@@@+... ",
" ...+@+@@@+@+@+#####+@+@@@+@+###+###+@+@@@+@+@+@+++@+@+@@@+@+.. ",
" ..+@+@@@+@+@+@+###+@+@+@@@+@+#####+@+@@@+@+@+@+@+@+@+@+@@@+@+. ",
" .+@+@@@+#+@+@+@+#+@+@+@+@@@+@+###+@+@@@+#+@+@+@+@+@+@+@+@@@+@+ ",
" +@+@@@+###+@+@+@+@+@+#+@+@@@+@+#+@+@@@+###+@+@+@+@+@+@+@+@@@+@ ",
" @+@@@+#+###+@+@+@+@+###+@+@@@+@+@+@@@+#+###+@+@+@+@+#+@+@+@@@+ ",
" +@@@+###+###+@+@+@+###+@+@+@@@+@+@@@+###+###+@+@+@+###+@+@+@@@ ",
" @@@+#+###+###+@+@+###+@+@+@+@@@+@@@+#+###+###+@+@+###+@+@+@+@@ ",
" @@+###+###+###+@+###+#+@+@+@+@@@@@+###+###+###+@+###+@+@+@+@+@ ",
" @+@+###+###+###+###+###+@+@+@+@@@+@+###+###+###+###+#+@+@+@+@+ ",
" @@+@+###+###+#####+###+@+@+@+@@@@@+@+###+###+#####+###+@+@+@+@ ",
" @@@+@+###+###+###+###+@+@+@+@@@+@@@+@+###+###+###+###+@+@+@+@@ ",
" +@@@+@+###+###+#+###+#+@+@+@@@+@+@@@+@+###+###+#+###+@+@+@+@@@ ",
" @+@@@+@+###+###+###+###+@+@@@+@+@+@@@+@+###+###+###+#+@+@+@@@+ ",
" +@+@@@+@+###+#####+###+@+@@@+@+@+@+@@@+@+###+#####+###+@+@@@+@ ",
" @+@+@@@+@+###+###+###+@+@@@+@+@+@+@+@@@+@+###+###+###+@+@@@+@+ ",
" +@+@+@@@+@+###+#+###+@+@@@+@+@+@+@+@+@@@+@+###+#+###+@+@@@+@+@ ",
" @+@+@+@@@+@+###+###+@+@@@+@+@+@+@+@+@+@@@+@+###+###+@+@@@+@+@+ ",
" +@+@+@+@@@+@+#####+@+@@@+#+@+@+@+@+@+@+@@@+@+#####+@+@@@+.+@+@ ",
" @+@+@+@+@@@+@+###+@+@@@+###+@+@+@+@+@+@+@@@+@+###+@+@@@+...+@+ ",
" +@+@+.+@+@@@+@+#+@+@@@+#+###+@+@+@+@+#+@+@@@+@+#+@+@@@+.+...+@ ",
" @+@+...+@+@@@+@+@+@@@+###+###+@+@+@+###+@+@@@+@+@+@@@+...+...+ ",
" +@+...+@+@+@@@+@+@@@+#+###+###+@+@+###+@+@+@@@+@+@@@+.+...+... ",
" @+...+@+@+@+@@@+@@@+###+###+###+@+###+@+@+@+@@@+@@@+...+...+.. ",
" +...+.+@+@+@+@@@@@+@+###+###+###+###+#+@+@+@+@@@@@+@+...+...+. ",
" ...+...+@+@+@+@@@+@+@+###+###+#####+###+@+@+@+@@@+@+@+...+...+ ",
" ..+...+@+@+@+@@@@@+@+@+###+###+###+###+@+@+@+@@@@@+@+@+...+... ",
" .+...+@+@+@+@@@+@@@+@+@+###+###+#+###+@+@+@+@@@+@@@+@+@+...+.. ",
" +...+.+@+@+@@@+@+@@@+@+@+###+###+###+#+@+@+@@@+@+@@@+@+@+...+. ",
" ...+...+@+@@@+@+@+@@@+@+@+###+#####+###+@+@@@+@+@+@@@+@+@+...+ ",
" ..+...+@+@@@+@+@+@+@@@+@+@+###+###+###+@+@@@+@+@+@+@@@+@+@+... ",
" .+...+@+@@@+#+@+@+#+@@@+@+@+###+#+###+@+@@@+#+@+@+#+@@@+@+@+.. ",
" +...+@+@@@+###+@+###+@@@+@+@+###+###+@+@@@+###+@+###+@@@+@+@+. ",
" ...+@+@@@+@+###+###+@+@@@+@+@+#####+@+@@@+@+###+###+@+@@@+@+@+ ",
" ..+@+@+@@@+@+#####+@+@@@+@+@+@+###+@+@+@@@+@+#####+@+@@@+@+@+@ ",
" .+@+@+@+@@@+@+###+@+@@@+.+@+@+@+#+@+@+@+@@@+@+###+@+@@@+.+@+@+ ",
" +@+@+@+@+@@@+@+#+@+@@@+...+@+@+@+@+@+@+@+@@@+@+#+@+@@@+...+@+@ ",
" @+@+.+@+@+@@@+@+@+@@@+.+...+@+@+@+@+@+@+@+@@@+@+@+@@@+.+...+@+ ",
" +@+...+@+@+@@@+@+@@@+...+...+@+@+@+.+@+@+@+@@@+@+@@@+...+...+@ ",
" @+...+@+@+@+@@@+@@@+.+...+...+@+@+...+@+@+@+@@@+@@@+.+...+...+ ",
" +...+@+@+@+@+@@@@@+...+...+...+@+...+@+@+@+@+@@@@@+...+...+... ",
"                                                                "};
