/* XPM */
static char * face_xpm[] = {
/* width height ncolors chars_per_pixel */
"48 48 16 1",
/* colors */
" 	s None	c None",
".	c grey87",
"X	c grey67",
"o	c grey33",
"O	c black",
"+	c grey13",
"@	c grey47",
"#	c grey53",
"$	c grey20",
"%	c grey60",
"&	c grey7",
"*	c grey73",
"=	c grey27",
"-	c grey80",
";	c grey93",
":	c grey40",
/* pixels */
"                                                ",
"                                                ",
"                                                ",
"                                                ",
"                 .XooOOOOO+o@X.                 ",
"               #$OOOOOOOOOOOOOO$X               ",
"             %&OOOOOOOOOOOOOOOOOO&%             ",
"           *$OOOOOOOOOOOOOOOOOOOOOO=.           ",
"          *&OOOOOOOOOOOOOOOOOOOOOOOO&*          ",
"         @OOOOOOOOOOOOOOOOOOOOOOOOOOO&*         ",
"        *&OOOOOOOOOOOOOOOOOOOOOOOOOOOO&*        ",
"       .&OOOOOOOOOOOOOOOOOOOOOOOOOOOOOO+        ",
"       =OOOOOOOOOOOOOOOOOOOOOOOOOOOOOOOO=       ",
"      %OOOOOOOOOOOOOOOOOOOOOOOOOOOOOOOOOOX      ",
"      +OOOOOOOOOOO&$%-;;;.%@+OOOOOOOOOOOO=      ",
"     *OOOOOOOOOO&@           -oOOOOOOOOOOO*     ",
"     oOOOOOOOOOo.              %&OOOOOOOOOo     ",
"     &OOOOOOOOo                 .+OOOOOOOO&     ",
"    XOOOOOOOO$                   -OOOOOOOOO-    ",
"    %OOOOOOOO.                    #OOOOOOOO%    ",
"    oOOOOOOO$                      OOOOOOOOo    ",
"    oOOOOOOOX                      =OOOOOOOo    ",
"    oOOOOOOOX                      oOOOOOOOo    ",
"    +OOOOOOO-     ;-------;        :OOOOOOO=    ",
"    =OOOOOOOX     %OOOOOOO*        oOOOOOOO$    ",
"    oOOOOOOOX     %OOOOOOO*        =OOOOOOOo    ",
"    oOOOOOOO#     %OOOOOOO*        OOOOOOOOo    ",
"    @OOOOOOO&     %OOOOOOO*       @OOOOOOOOo    ",
"    XOOOOOOOO%    %OOOOOOO*      -&OOOOOOOOX    ",
"    .OOOOOOOO&.   %OOOOOOO*     -&OOOOOOOOO-    ",
"     =OOOOOOOO&#  %OOOOOOO*    %&OOOOOOOOO+     ",
"     %OOOOOOOOOO&:=OOOOOOO*  *=OOOOOOOOOOO@     ",
"      +OOOOOOOOOOOOOOOOOOO*   &OOOOOOOOOO&.     ",
"      %OOOOOOOOOOOOOOOOOOO*   :OOOOOOOOOO:      ",
"       =OOOOOOOOOOOOOOOOOO*   *OOOOOOOOO+       ",
"       -&OOOOOOOOOOOOOOOOO*    +OOOOOOO&-       ",
"        XOOOOOOOOOOOOOOOOO*    %OOOOOOO#        ",
"         #&OOOOOOOOOOOOOOO*     +OOOOO#         ",
"          -&OOOOOOOOOOOOOO*     :OOO&-          ",
"           ;oOOOOOOOOOOOOO*     .&Oo            ",
"             -oOOOOOOOOOOO*      @-             ",
"               -#$OOOOOOOO*                     ",
"                  --#::::&*                     ",
"                                                ",
"                                                ",
"                                                ",
"                                                ",
"                                                "};
