/* XPM */
static char * C:\Users\john\go\src\github_com\JohnDDuncanIII\homepage\assets\portfolio\picons\weather\sky\smokey\face_xpm[] = {
"64 64 9 1",
" 	c None",
".	c #000000",
"+	c #000080",
"@	c #0000FF",
"#	c #FF0000",
"$	c #1E90FF",
"%	c #BEBEBE",
"&	c #FFFF00",
"*	c #FFFFFF",
"%%%%%%%%%%%%%%%%%%%%%%%%%%%%%%%%%%%%%%%%%%%%%%%%%%%%%%%%%%%%%%%%",
"%%%%%%%%%%%%%%%%%%%%%%%%%%%%%%%%%%%%%%%%%%%%%%%%%%%%%%%%%%%%%%%%",
"%%%%%%%%%%%%%%%%%%%%%%%%%%%%%%%%%%%%%%%%%%%%%%%%%%%%%%%%%%%%%%%%",
"%%%%%%%%%%%%%%%%%%%%%%%%%%%%%%%%%%%%%%%%%%%%%%%%%%%%%%%%%%%%%%%%",
"%%%%%%%%%%%%%%%%$$$$$%%%%%%%%%%%%%%%%%%%%%%%%%%%%%%%%%%%%%%%%%%%",
"%%%%%%%%%%%%%%%$*****$%%%%%%%%%%%%%%%%%%%%%%%%%%%%%%%%%%%%%%%%%%",
"%%%%%%%%%%%%%%$*******$%%$$$%%%%%%%%%%%%%%%%%%%%%%%%%%%%%%%%%%%%",
"%%%%%%%%%%%%%%$********$$***$%%%%%%%%%%%%%%%%%%%%%%%%%%%%%%%%%%%",
"%%%%%%%%$$%%%$*********$*****$%%%%%%%%%%%%%%%%%%%%%%%%%%%%%%%%%%",
"%%%%%%$$**$$%$***************$%%%%%%%%%%%%%%%%%%%%%%%%%%%%%%%%%%",
"%%%%%$******$$***************$$$%%%%%%%%%%%%%%%%%%%%%%%%%%%%%%%%",
"%%%%$*******$*******************$%%%%%%%%%%%%%%%%%%%%%%%%%%%%%%%",
"%%%%$*******$********************$%%%%%%%%%%%%%%%%%%%%%%%%%%%%%%",
"%%%$******************************$%%%%%%%%%%%%%%%%%%%%%%%%%%%%%",
"%%%$******************************$%%%%$$$$%%%%%%%%$$$$$%%%%%%%%",
"%%%$************************$*****$%%$$****$$%%%%$$*****$$%%%%%%",
"%%$*************************$****$%%$********$%%$*********$%%%%%",
"%%$************************$%$$$$%%$**********$$***********$%%%%",
"%%$******$******$**********$%%%%%%%$***********$***********$%%%%",
"%%%$***$$*******$*********$%%%%%%%$***********$*************$%%%",
"%%%%$$$%$*******$$*******$%%%%%%%$**************************$%%%",
"%%%%%%%%$*******$%$***$$$%%%%$$$$$**************************$%%%",
"%%%%%%%%%$*****$%%%$$$%%%%%$$****$***************************$%%",
"%%%%%%%%%%$***$%%%%%%%%%%%$******$***************************$%%",
"%%%%%%%%%%%$$$%%%%%%%%%%%$********$**************************$%%",
"%%%%%%%%%%%%%%%%%%%%%%%%%$***********************************$%%",
"%%%%%%%%%%%%%%%%%%$$$$$$$$***********************************$%%",
"%%%%%%%%%%%%%%%%%$*******$***********************************$%%",
"%%%%%%%%%%%%%%%%$*********$*********************$*********$$*$%%",
"%%%%%%%%%%%%%%%$***********$********************$***********$%%%",
"%%%%%%%%%%%%%%$********************************$$************$%%",
"%%%%%%%%%%%%%%$*******************************$.*************$%%",
"%%%%%%$$$$$$%%$***********************$*******$.**************$%",
"%%%%$$******$$$$***********************$$***$$..**********$***$%",
"%%%$************$$*********************$&$$$&&..**********$***$%",
"%%$************************$**********$&&&&&&&&..*********$***$%",
"%%$*************************$$****$$$$&&&&&&#&&..********$****$%",
"%$****************************$$$$.&&&&&&&&&#&&..*******$*****$%",
"%$********************************..&&&&&&&&#&&&..***#$$******$%",
"%$*********************************..&&&&&&##&&&..*$$#********$%",
"$***********************************.#&&&&&###&&..***#********$%",
"$***********************************$#.&&&&###&&&..*##********$%",
"$**************************$$$****$$*#..&&##&#&&&#.*##********$%",
"$*****************************$$$$**##*..&##&#&&&#.*##*#******$%",
"%$*****************************#****##**..##&##&&#..***#*****$%%",
"%$*****************************#****##***..#&&#&&#..**##*****$%%",
"%%$**$*************************#****###***.#&##&###.**##****$%%%",
"%%%$$**************************##***#&#**#*.##&&########**#$%%%%",
"%%%%$**************************##***###..#....&&#&&#&&#**#*$%%%%",
"%%%%$**************************##*#***..##&&#&&&##&&###$#$$%%%%%",
"%%%%$************$****************#****.##&##&&&###&##*##%%%%%%%",
"%%%%%$***********$****************##***###&#&&&&###&##*##%#%%%%%",
"%%%%%$***********$************#***#######.##&#&.###&&#$%%%#%%%%%",
"%%%%%%$**********$************#$**#####&#*##&##&.##&&&#%%##%%%%%",
"%%%%%%%$$******$$%$***********##$*##&&&&#**..##&..##&&#####%%%%%",
"%%%%%%%%%$$***$%%%$*********$$##%$###&&&##**####&.##&&#####%%%%%",
"%%%%%%%%%%%$$$%%%%%$$******$%%%%#%###&&&########&.##&&&&&##%%%%%",
"%%%%%%%%%%%%%%%%%%%%%$$$$$$%%%##%%##&&&&&###&##&&##&&&&&###%%%%%",
"%%%%%%%%%%%%%%%%%%%%%%%%%%%%%%######&&&&&&#&&##&&##&&&&###%%%%%%",
"%%%%%%%%%%%%%%%%%%%%%%%%%%%%%%%#&&&#&&&&&&&&###..##&&&###%%%%%%%",
"%%%%%%%%%%%%%%%%%%%%%%%%%%%%%%%###&&&&&&+&&###.&.#&&&###%%%%%%%%",
"%%%%%%%%%%%%%%%%%%%%%%%%%%%%%%%###+#&&@@++###..&+#&@&#.%%%%%%%%%",
"%%%%%%%%%%%%%%%%%%%%%%%%%%%%%%%%#++.#&.@+++#+...++&@+.+%%%%%%%%%",
"%%%%%%%%%%%%%%%%%%%%%%%%%%%%%%%%%+@++..@+++@@@++@++@++%%%%%%%%%%"};
