#define largerank_width 108
#define largerank_height 280
static char largerank_bits[] = {
   0x00, 0x00, 0x00, 0x00, 0x00, 0x00, 0x00, 0x00, 0x00, 0x00, 0x00, 0x00,
   0x00, 0x00, 0x00, 0x00, 0x00, 0x00, 0x00, 0x00, 0x00, 0x00, 0x00, 0x00,
   0x00, 0x00, 0x00, 0x00, 0x00, 0x00, 0x00, 0x00, 0x00, 0x00, 0xe0, 0x07,
   0x00, 0x00, 0x00, 0x00, 0x00, 0x00, 0x00, 0x00, 0x07, 0x00, 0x00, 0x00,
   0xf8, 0x1f, 0x00, 0x00, 0x00, 0x00, 0x00, 0x00, 0x00, 0x00, 0x07, 0x00,
   0x00, 0x00, 0x1e, 0x30, 0x00, 0x00, 0x00, 0x00, 0x00, 0x00, 0x00, 0x00,
   0x07, 0x00, 0x00, 0x00, 0x1e, 0x30, 0x00, 0x00, 0x00, 0x00, 0x00, 0x00,
   0x00, 0x00, 0x07, 0x00, 0x00, 0x00, 0x07, 0x30, 0x00, 0x00, 0x00, 0x00,
   0x00, 0x00, 0x00, 0x80, 0x0f, 0x00, 0x00, 0x80, 0x03, 0x78, 0x00, 0x00,
   0x00, 0x00, 0x00, 0x00, 0x00, 0x80, 0x0f, 0x00, 0x00, 0xc0, 0x01, 0x7c,
   0x00, 0xff, 0xff, 0x1f, 0x00, 0x00, 0x00, 0x80, 0x0f, 0x00, 0x00, 0xc0,
   0x01, 0x7c, 0x00, 0xff, 0xff, 0x7f, 0x00, 0x00, 0x00, 0x80, 0x0f, 0x00,
   0x00, 0xe0, 0x01, 0x7c, 0x00, 0xff, 0xff, 0x7f, 0x00, 0x00, 0x00, 0xc0,
   0x1f, 0x00, 0x00, 0xe0, 0x00, 0x38, 0x00, 0xfe, 0xff, 0xff, 0x01, 0x00,
   0x00, 0xc0, 0x1f, 0x00, 0x00, 0xf0, 0x00, 0x00, 0x00, 0xf0, 0x01, 0xf0,
   0x03, 0x00, 0x00, 0xc0, 0x1f, 0x00, 0x00, 0xf0, 0x00, 0x00, 0x00, 0xf0,
   0x01, 0xe0, 0x07, 0x00, 0x00, 0xe0, 0x3f, 0x00, 0x00, 0x78, 0x00, 0x00,
   0x00, 0xf0, 0x01, 0xe0, 0x07, 0x00, 0x00, 0xe0, 0x33, 0x00, 0x00, 0x78,
   0x00, 0x00, 0x00, 0xf0, 0x01, 0xc0, 0x0f, 0x00, 0x00, 0xe0, 0x33, 0x00,
   0x00, 0x78, 0x00, 0x00, 0x00, 0xf0, 0x01, 0x80, 0x0f, 0x00, 0x00, 0xe0,
   0x33, 0x00, 0x00, 0x78, 0x00, 0x00, 0x00, 0xf0, 0x01, 0x80, 0x0f, 0x00,
   0x00, 0xf0, 0x61, 0x00, 0x00, 0x7c, 0x00, 0x00, 0x00, 0xf0, 0x01, 0x00,
   0x1f, 0x00, 0x00, 0xf0, 0x61, 0x00, 0x00, 0x3c, 0x00, 0x00, 0x00, 0xf0,
   0x01, 0x00, 0x1f, 0x00, 0x00, 0xf8, 0xe1, 0x00, 0x00, 0x3c, 0x00, 0x00,
   0x00, 0xf0, 0x01, 0x00, 0x1f, 0x00, 0x00, 0xf8, 0xe1, 0x00, 0x00, 0x3c,
   0x00, 0x00, 0x00, 0xf0, 0x01, 0x00, 0x1f, 0x00, 0x00, 0xf8, 0xc0, 0x00,
   0x00, 0x3e, 0xf8, 0x01, 0x00, 0xf0, 0x01, 0x00, 0x1f, 0x00, 0x00, 0xf8,
   0xc0, 0x00, 0x00, 0x3e, 0x06, 0x07, 0x00, 0xf0, 0x01, 0x00, 0x1f, 0x00,
   0x00, 0xfc, 0xc0, 0x01, 0x00, 0x3e, 0x01, 0x0e, 0x00, 0xf0, 0x01, 0x00,
   0x1f, 0x00, 0x00, 0xfc, 0x80, 0x01, 0x00, 0x3e, 0x01, 0x0e, 0x00, 0xf0,
   0x01, 0x00, 0x0f, 0x00, 0x00, 0x7c, 0x80, 0x01, 0x00, 0xbe, 0x00, 0x1c,
   0x00, 0xf0, 0x01, 0x80, 0x07, 0x00, 0x00, 0x7c, 0x80, 0x01, 0x00, 0xbe,
   0x00, 0x38, 0x00, 0xf0, 0x01, 0x80, 0x07, 0x00, 0x00, 0x3e, 0x80, 0x03,
   0x00, 0x7e, 0x00, 0x78, 0x00, 0xf0, 0x01, 0xc0, 0x07, 0x00, 0x00, 0x3e,
   0x00, 0x03, 0x00, 0x7e, 0x00, 0x78, 0x00, 0xf0, 0xff, 0xff, 0x07, 0x00,
   0x00, 0x3e, 0x00, 0x03, 0x00, 0x7e, 0x00, 0xf0, 0x00, 0xf0, 0xff, 0xff,
   0x03, 0x00, 0x00, 0x3f, 0x00, 0x07, 0x00, 0x7e, 0x00, 0xf0, 0x00, 0xf0,
   0xff, 0xff, 0x01, 0x00, 0x00, 0x1f, 0x00, 0x06, 0x00, 0x3e, 0x00, 0xf0,
   0x00, 0xf0, 0xff, 0x7f, 0x00, 0x00, 0x00, 0x1f, 0x00, 0x06, 0x00, 0x3e,
   0x00, 0xf0, 0x00, 0xf0, 0x01, 0xf8, 0x00, 0x00, 0x00, 0x1f, 0x00, 0x06,
   0x00, 0x3e, 0x00, 0xf0, 0x01, 0xf0, 0x01, 0xe0, 0x03, 0x00, 0x80, 0x1f,
   0x00, 0x0e, 0x00, 0x3e, 0x00, 0xf0, 0x01, 0xf0, 0x01, 0xc0, 0x07, 0x00,
   0x80, 0x0f, 0x00, 0x0c, 0x00, 0x3e, 0x00, 0xf0, 0x01, 0xf0, 0x01, 0x80,
   0x0f, 0x00, 0x80, 0xff, 0xff, 0x0f, 0x00, 0x3e, 0x00, 0xf0, 0x01, 0xf0,
   0x01, 0x80, 0x0f, 0x00, 0x80, 0xff, 0xff, 0x0f, 0x00, 0x3e, 0x00, 0xf0,
   0x01, 0xf0, 0x01, 0x00, 0x0f, 0x00, 0xc0, 0xff, 0xff, 0x1f, 0x00, 0x3c,
   0x00, 0xf0, 0x01, 0xf0, 0x01, 0x00, 0x1e, 0x00, 0xc0, 0xff, 0xff, 0x1f,
   0x00, 0x3c, 0x00, 0xf0, 0x01, 0xf0, 0x01, 0x00, 0x1e, 0x00, 0xc0, 0x07,
   0x00, 0x18, 0x00, 0x3c, 0x00, 0xf0, 0x01, 0xf0, 0x01, 0x00, 0x3e, 0x00,
   0xe0, 0x07, 0x00, 0x38, 0x00, 0x3c, 0x00, 0xf0, 0x01, 0xf0, 0x01, 0x00,
   0x3e, 0x00, 0xe0, 0x03, 0x00, 0x30, 0x00, 0x3c, 0x00, 0xf0, 0x01, 0xf0,
   0x01, 0x00, 0x3e, 0x00, 0xe0, 0x03, 0x00, 0x30, 0x00, 0x78, 0x00, 0xf0,
   0x00, 0xf0, 0x01, 0x00, 0x3e, 0x00, 0xe0, 0x03, 0x00, 0x30, 0x00, 0x78,
   0x00, 0xf0, 0x00, 0xf0, 0x01, 0x00, 0x3e, 0x00, 0xf0, 0x01, 0x00, 0x70,
   0x00, 0x78, 0x00, 0xf0, 0x00, 0xf0, 0x01, 0x00, 0x3f, 0x00, 0xf0, 0x01,
   0x00, 0x60, 0x00, 0x70, 0x00, 0x78, 0x00, 0xf0, 0x01, 0x80, 0x1f, 0x00,
   0xf8, 0x01, 0x00, 0xe0, 0x00, 0xf0, 0x00, 0x78, 0x00, 0xf0, 0x01, 0xc0,
   0x1f, 0x00, 0xf8, 0x00, 0x00, 0xe0, 0x00, 0xf0, 0x00, 0x78, 0x00, 0xf0,
   0x01, 0xe0, 0x0f, 0x00, 0xf8, 0x00, 0x00, 0xf0, 0x03, 0xe0, 0x00, 0x3c,
   0x00, 0xf0, 0x01, 0xf0, 0x0f, 0x00, 0xfc, 0x03, 0x00, 0xfc, 0x07, 0xc0,
   0x01, 0x1c, 0x00, 0xf0, 0x01, 0xf8, 0x03, 0x00, 0xfe, 0x07, 0x00, 0xfc,
   0x07, 0x80, 0x07, 0x0f, 0x00, 0xfe, 0xff, 0xff, 0x01, 0x00, 0xfe, 0x07,
   0x00, 0xfc, 0x07, 0x80, 0x07, 0x0f, 0x00, 0xff, 0xff, 0x3f, 0x00, 0x00,
   0x00, 0x00, 0x00, 0x00, 0x00, 0x00, 0xff, 0x07, 0x00, 0xff, 0xff, 0x3f,
   0x00, 0x00, 0x00, 0x00, 0x00, 0x00, 0x00, 0x00, 0xfc, 0x00, 0x00, 0xff,
   0xff, 0x1f, 0x00, 0x00, 0x00, 0x00, 0x00, 0x00, 0x00, 0xe0, 0xff, 0xff,
   0x07, 0x00, 0x00, 0x00, 0x00, 0x00, 0x00, 0xf0, 0x07, 0x00, 0x00, 0xe0,
   0xff, 0xff, 0x07, 0x00, 0x00, 0x00, 0x00, 0x00, 0x00, 0xf0, 0x07, 0x00,
   0x00, 0xe0, 0xff, 0xff, 0x03, 0x00, 0x00, 0x00, 0x00, 0x00, 0x00, 0xfc,
   0x1f, 0x00, 0x00, 0xe0, 0xff, 0xff, 0x03, 0x00, 0x00, 0x00, 0x00, 0x00,
   0x00, 0x06, 0x7e, 0x00, 0x00, 0x70, 0x00, 0xc0, 0x03, 0x00, 0x00, 0x00,
   0x00, 0x00, 0x00, 0x03, 0xf8, 0x00, 0x00, 0x30, 0x00, 0x80, 0x01, 0x00,
   0x00, 0x00, 0x00, 0x00, 0x00, 0x03, 0xf8, 0x00, 0x00, 0x10, 0x00, 0x80,
   0x00, 0x00, 0x00, 0x00, 0x00, 0x00, 0x80, 0x00, 0xf0, 0x01, 0x00, 0x10,
   0x00, 0xc0, 0x00, 0x00, 0x00, 0x00, 0x00, 0x00, 0xc0, 0x00, 0xf0, 0x01,
   0x00, 0x10, 0x00, 0xc0, 0x00, 0x00, 0x00, 0x00, 0x00, 0x00, 0x40, 0x00,
   0xe0, 0x03, 0x00, 0x10, 0x00, 0x60, 0x00, 0xff, 0xff, 0x0f, 0x00, 0x00,
   0x40, 0x00, 0xe0, 0x03, 0x00, 0x08, 0x00, 0x20, 0x00, 0xff, 0xff, 0x3f,
   0x00, 0x00, 0x40, 0x00, 0xe0, 0x03, 0x00, 0x08, 0x00, 0x30, 0x00, 0xfe,
   0xff, 0xff, 0x00, 0x00, 0xe0, 0x03, 0xe0, 0x07, 0x00, 0x08, 0x00, 0x30,
   0x00, 0xf0, 0x01, 0xfc, 0x01, 0x00, 0xe0, 0x07, 0xe0, 0x07, 0x00, 0x00,
   0x00, 0x18, 0x00, 0xf0, 0x01, 0xf0, 0x03, 0x00, 0xe0, 0x07, 0xe0, 0x07,
   0x00, 0x00, 0x00, 0x18, 0x00, 0xf0, 0x01, 0xe0, 0x03, 0x00, 0xe0, 0x07,
   0xc0, 0x07, 0x00, 0x00, 0x00, 0x0c, 0x00, 0xf0, 0x01, 0xc0, 0x07, 0x00,
   0xe0, 0x07, 0xc0, 0x07, 0x00, 0x00, 0x00, 0x0c, 0x00, 0xf0, 0x01, 0x80,
   0x0f, 0x00, 0xe0, 0x07, 0xc0, 0x07, 0x00, 0x00, 0x00, 0x0c, 0x00, 0xf0,
   0x01, 0x00, 0x1f, 0x00, 0xe0, 0x07, 0xc0, 0x07, 0x00, 0x00, 0x00, 0x06,
   0x00, 0xf0, 0x01, 0x00, 0x1f, 0x00, 0xc0, 0x03, 0xe0, 0x07, 0x00, 0x00,
   0x00, 0x06, 0x00, 0xf0, 0x01, 0x00, 0x3e, 0x00, 0x00, 0x00, 0xe0, 0x07,
   0x00, 0x00, 0x00, 0x03, 0x00, 0xf0, 0x01, 0x00, 0x3e, 0x00, 0x00, 0x00,
   0xe0, 0x03, 0x00, 0x00, 0x00, 0x03, 0x00, 0xf0, 0x01, 0x00, 0x7c, 0x00,
   0x00, 0x00, 0xe0, 0x03, 0x00, 0x00, 0x80, 0x03, 0x00, 0xf0, 0x01, 0x00,
   0x7c, 0x00, 0x00, 0x00, 0xe0, 0x03, 0x00, 0x00, 0x80, 0x01, 0x00, 0xf0,
   0x01, 0x00, 0x7c, 0x00, 0x00, 0x00, 0xf0, 0x01, 0x00, 0x00, 0xc0, 0x01,
   0x00, 0xf0, 0x01, 0x00, 0x7c, 0x00, 0x00, 0x00, 0xf0, 0x01, 0x00, 0x00,
   0xc0, 0x01, 0x00, 0xf0, 0x01, 0x00, 0xf8, 0x00, 0x00, 0x00, 0xf0, 0x01,
   0x00, 0x00, 0xc0, 0x01, 0x00, 0xf0, 0x01, 0x00, 0xf8, 0x00, 0x00, 0x00,
   0xf8, 0x00, 0x00, 0x00, 0xc0, 0x01, 0x00, 0xf0, 0x01, 0x00, 0xf8, 0x00,
   0x00, 0x00, 0x78, 0x00, 0x00, 0x00, 0xe0, 0x01, 0x00, 0xf0, 0x01, 0x00,
   0xf8, 0x00, 0x00, 0x00, 0x3c, 0x00, 0x00, 0x00, 0xe0, 0x01, 0x00, 0xf0,
   0x01, 0x00, 0xf8, 0x00, 0x00, 0x00, 0x3c, 0x00, 0x00, 0x00, 0xe0, 0x00,
   0x00, 0xf0, 0x01, 0x00, 0xf8, 0x00, 0x00, 0x00, 0x1c, 0x00, 0x00, 0x00,
   0xe0, 0x00, 0x00, 0xf0, 0x01, 0x00, 0xf8, 0x00, 0x00, 0x00, 0x1e, 0x00,
   0x00, 0x00, 0xe0, 0x00, 0x00, 0xf0, 0x01, 0x00, 0xf8, 0x00, 0x00, 0x00,
   0x0f, 0x00, 0x00, 0x00, 0xe0, 0x00, 0x00, 0xf0, 0x01, 0x00, 0xf8, 0x00,
   0x00, 0x00, 0x07, 0x00, 0x00, 0x00, 0xf0, 0x00, 0x00, 0xf0, 0x01, 0x00,
   0xf8, 0x00, 0x00, 0x80, 0x07, 0x00, 0x00, 0x00, 0xf0, 0x00, 0x00, 0xf0,
   0x01, 0x00, 0xf8, 0x00, 0x00, 0x80, 0x03, 0x00, 0x00, 0x00, 0xf0, 0x00,
   0x00, 0xf0, 0x01, 0x00, 0xf8, 0x00, 0x00, 0xc0, 0x01, 0x00, 0x00, 0x00,
   0xf0, 0x00, 0x00, 0xf0, 0x01, 0x00, 0x78, 0x00, 0x00, 0xc0, 0x01, 0x00,
   0x00, 0x00, 0xf0, 0x00, 0x00, 0xf0, 0x01, 0x00, 0x7c, 0x00, 0x00, 0xe0,
   0x00, 0x00, 0x00, 0x00, 0xf0, 0x00, 0x00, 0xf0, 0x01, 0x00, 0x7c, 0x00,
   0x00, 0x70, 0x00, 0x00, 0x00, 0x00, 0xf0, 0x00, 0x00, 0xf0, 0x01, 0x00,
   0x7c, 0x00, 0x00, 0x78, 0x00, 0x04, 0x00, 0x00, 0xf8, 0x00, 0x00, 0xf0,
   0x01, 0x00, 0x7c, 0x00, 0x00, 0x38, 0x00, 0x04, 0x00, 0x00, 0xf8, 0x00,
   0x00, 0xf0, 0x01, 0x00, 0x3e, 0x00, 0x00, 0x18, 0x00, 0x04, 0x00, 0x00,
   0xf8, 0x00, 0x00, 0xf0, 0x01, 0x00, 0x3e, 0x00, 0x00, 0x1c, 0x00, 0x02,
   0x00, 0x00, 0xf8, 0x00, 0x00, 0xf0, 0x01, 0x00, 0x3e, 0x00, 0x00, 0x0e,
   0x00, 0x02, 0x00, 0x00, 0xf8, 0x00, 0x00, 0xf0, 0x01, 0x00, 0x1f, 0x00,
   0x00, 0x06, 0x00, 0x02, 0x00, 0x00, 0xf8, 0x00, 0x00, 0xf0, 0x01, 0x00,
   0x0f, 0x00, 0x00, 0x07, 0x00, 0x02, 0x00, 0x00, 0xf8, 0x00, 0x00, 0xf0,
   0x01, 0x00, 0x0f, 0x00, 0x80, 0x03, 0x00, 0x03, 0x00, 0x00, 0xf8, 0x00,
   0x00, 0xf0, 0x01, 0x80, 0x07, 0x00, 0x80, 0xff, 0xff, 0x03, 0x00, 0x00,
   0xf8, 0x00, 0x00, 0xf0, 0x01, 0xe0, 0x03, 0x00, 0x80, 0xff, 0xff, 0x03,
   0x00, 0x00, 0xf8, 0x00, 0x00, 0xf0, 0x01, 0xf0, 0x01, 0x00, 0xc0, 0xff,
   0xff, 0x01, 0x00, 0x00, 0xf8, 0x00, 0x00, 0xf0, 0x01, 0xfc, 0x01, 0x00,
   0xe0, 0xff, 0xff, 0x01, 0x00, 0x00, 0x70, 0x00, 0x00, 0xfe, 0xff, 0xff,
   0x00, 0x00, 0xe0, 0xff, 0xff, 0x01, 0x00, 0x00, 0x00, 0x00, 0x00, 0xff,
   0xff, 0x3f, 0x00, 0x00, 0xe0, 0xff, 0xff, 0x01, 0x00, 0x00, 0x00, 0x00,
   0x00, 0xff, 0xff, 0x07, 0x00, 0x00, 0x00, 0x00, 0x00, 0x00, 0x00, 0x00,
   0x00, 0x00, 0x00, 0x00, 0x00, 0x00, 0x00, 0x00, 0x00, 0x00, 0x00, 0x00,
   0x00, 0x00, 0x00, 0x00, 0x00, 0x00, 0x00, 0x00, 0x00, 0x00, 0x00, 0xe0,
   0x07, 0x00, 0x00, 0x00, 0xf8, 0x01, 0x00, 0x00, 0x00, 0x00, 0x00, 0x00,
   0x00, 0xfc, 0x3f, 0x00, 0x00, 0x00, 0xfe, 0x07, 0x00, 0x00, 0x00, 0x00,
   0x00, 0x00, 0x00, 0xfc, 0x3f, 0x00, 0x00, 0x00, 0xfe, 0x07, 0x00, 0x00,
   0x00, 0x00, 0x00, 0x00, 0x00, 0x0e, 0x7c, 0x00, 0x00, 0x00, 0x07, 0x1e,
   0x00, 0x00, 0x00, 0x00, 0x00, 0x00, 0x00, 0x03, 0xf8, 0x00, 0x00, 0x80,
   0x01, 0x3c, 0x00, 0x00, 0x00, 0x00, 0x00, 0x00, 0x80, 0x00, 0xf0, 0x01,
   0x00, 0xc0, 0x00, 0x78, 0x00, 0x00, 0x00, 0x00, 0x00, 0x00, 0x80, 0x00,
   0xf0, 0x01, 0x00, 0xc0, 0x00, 0x78, 0x00, 0x00, 0x00, 0x00, 0x00, 0x00,
   0x80, 0x03, 0xf0, 0x01, 0x00, 0xe0, 0x00, 0x70, 0x00, 0x00, 0x00, 0x00,
   0x00, 0x00, 0xc0, 0x07, 0xf0, 0x03, 0x00, 0x60, 0x00, 0xe0, 0x00, 0x00,
   0x00, 0x00, 0x00, 0x00, 0xc0, 0x07, 0xe0, 0x03, 0x00, 0x70, 0x00, 0xe0,
   0x00, 0xff, 0x1f, 0xfc, 0x7f, 0x00, 0xc0, 0x07, 0xe0, 0x03, 0x00, 0x70,
   0x00, 0xe0, 0x00, 0xff, 0x1f, 0xfc, 0x7f, 0x00, 0xc0, 0x07, 0xe0, 0x03,
   0x00, 0x70, 0x00, 0xe0, 0x00, 0xff, 0x1f, 0xfc, 0x7f, 0x00, 0x80, 0x07,
   0xe0, 0x03, 0x00, 0x70, 0x00, 0xe0, 0x00, 0xf8, 0x03, 0xe0, 0x0f, 0x00,
   0x00, 0x03, 0xf0, 0x03, 0x00, 0x70, 0x00, 0xe0, 0x00, 0xf0, 0x01, 0xc0,
   0x03, 0x00, 0x00, 0x03, 0xf0, 0x03, 0x00, 0x70, 0x00, 0xe0, 0x00, 0xf0,
   0x01, 0xe0, 0x01, 0x00, 0x00, 0x00, 0xf0, 0x01, 0x00, 0xf0, 0x00, 0xe0,
   0x00, 0xf0, 0x01, 0xf0, 0x00, 0x00, 0x00, 0x00, 0xf0, 0x01, 0x00, 0xf0,
   0x01, 0x70, 0x00, 0xf0, 0x01, 0x78, 0x00, 0x00, 0x00, 0x00, 0xf0, 0x00,
   0x00, 0xe0, 0x03, 0x70, 0x00, 0xf0, 0x01, 0x38, 0x00, 0x00, 0x00, 0x00,
   0xf0, 0x00, 0x00, 0xe0, 0x03, 0x70, 0x00, 0xf0, 0x01, 0x3c, 0x00, 0x00,
   0x00, 0x00, 0xf8, 0x00, 0x00, 0xe0, 0x0f, 0x38, 0x00, 0xf0, 0x01, 0x1e,
   0x00, 0x00, 0x00, 0x00, 0x78, 0x00, 0x00, 0xc0, 0x1f, 0x1c, 0x00, 0xf0,
   0x01, 0x0f, 0x00, 0x00, 0x00, 0x00, 0x1c, 0x00, 0x00, 0x80, 0x7f, 0x06,
   0x00, 0xf0, 0x81, 0x07, 0x00, 0x00, 0x00, 0x00, 0x1c, 0x00, 0x00, 0x80,
   0x7f, 0x06, 0x00, 0xf0, 0x81, 0x03, 0x00, 0x00, 0x00, 0x00, 0x0e, 0x00,
   0x00, 0x00, 0xff, 0x03, 0x00, 0xf0, 0xc1, 0x01, 0x00, 0x00, 0x00, 0xf0,
   0x07, 0x00, 0x00, 0x00, 0xfe, 0x03, 0x00, 0xf0, 0xe1, 0x00, 0x00, 0x00,
   0x00, 0xf0, 0x3f, 0x00, 0x00, 0x00, 0xfc, 0x07, 0x00, 0xf0, 0x71, 0x00,
   0x00, 0x00, 0x00, 0xf0, 0x3f, 0x00, 0x00, 0x00, 0xfc, 0x07, 0x00, 0xf0,
   0x39, 0x00, 0x00, 0x00, 0x00, 0x00, 0x7c, 0x00, 0x00, 0x00, 0xfe, 0x1f,
   0x00, 0xf0, 0x3d, 0x00, 0x00, 0x00, 0x00, 0x00, 0xf0, 0x01, 0x00, 0x00,
   0xe3, 0x3f, 0x00, 0xf0, 0x7f, 0x00, 0x00, 0x00, 0x00, 0x00, 0xe0, 0x03,
   0x00, 0xc0, 0x81, 0x7f, 0x00, 0xf0, 0x7f, 0x00, 0x00, 0x00, 0x00, 0x00,
   0xe0, 0x03, 0x00, 0xc0, 0x81, 0x7f, 0x00, 0xf0, 0xff, 0x00, 0x00, 0x00,
   0x00, 0x00, 0xe0, 0x03, 0x00, 0xe0, 0x00, 0xff, 0x00, 0xf0, 0xff, 0x00,
   0x00, 0x00, 0x00, 0x00, 0xc0, 0x07, 0x00, 0x70, 0x00, 0xfc, 0x01, 0xf0,
   0xf7, 0x01, 0x00, 0x00, 0x00, 0x00, 0xc0, 0x07, 0x00, 0x30, 0x00, 0xf8,
   0x01, 0xf0, 0xe3, 0x01, 0x00, 0x00, 0x00, 0x00, 0xc0, 0x07, 0x00, 0x30,
   0x00, 0xf8, 0x01, 0xf0, 0xc1, 0x03, 0x00, 0x00, 0x00, 0x00, 0xc0, 0x0f,
   0x00, 0x38, 0x00, 0xe0, 0x01, 0xf0, 0xc1, 0x03, 0x00, 0x00, 0x00, 0x00,
   0xc0, 0x0f, 0x00, 0x18, 0x00, 0xc0, 0x03, 0xf0, 0x81, 0x07, 0x00, 0x00,
   0xc0, 0x00, 0xc0, 0x0f, 0x00, 0x1c, 0x00, 0xc0, 0x03, 0xf0, 0x81, 0x07,
   0x00, 0x00, 0xc0, 0x00, 0xc0, 0x0f, 0x00, 0x1c, 0x00, 0xc0, 0x03, 0xf0,
   0x01, 0x0f, 0x00, 0x00, 0xe0, 0x01, 0xc0, 0x0f, 0x00, 0x1c, 0x00, 0x80,
   0x03, 0xf0, 0x01, 0x1f, 0x00, 0x00, 0xf0, 0x03, 0xc0, 0x0f, 0x00, 0x1c,
   0x00, 0x80, 0x03, 0xf0, 0x01, 0x1e, 0x00, 0x00, 0xf0, 0x03, 0xc0, 0x0f,
   0x00, 0x1c, 0x00, 0x80, 0x03, 0xf0, 0x01, 0x3c, 0x00, 0x00, 0xf0, 0x03,
   0xc0, 0x0f, 0x00, 0x1c, 0x00, 0x80, 0x03, 0xf0, 0x01, 0x3c, 0x00, 0x00,
   0xf0, 0x03, 0xc0, 0x07, 0x00, 0x1c, 0x00, 0x80, 0x03, 0xf0, 0x01, 0x78,
   0x00, 0x00, 0xf0, 0x01, 0xc0, 0x07, 0x00, 0x3c, 0x00, 0x80, 0x01, 0xf0,
   0x01, 0x78, 0x00, 0x00, 0x20, 0x00, 0xe0, 0x07, 0x00, 0x38, 0x00, 0xc0,
   0x01, 0xf0, 0x01, 0xf0, 0x00, 0x00, 0x20, 0x00, 0xe0, 0x07, 0x00, 0x38,
   0x00, 0xc0, 0x01, 0xf0, 0x01, 0xf0, 0x00, 0x00, 0x20, 0x00, 0xe0, 0x03,
   0x00, 0x78, 0x00, 0xc0, 0x00, 0xf0, 0x01, 0xe0, 0x03, 0x00, 0xc0, 0x00,
   0xf0, 0x01, 0x00, 0x70, 0x00, 0x60, 0x00, 0xf0, 0x01, 0xe0, 0x03, 0x00,
   0x80, 0x01, 0xf0, 0x00, 0x00, 0xe0, 0x01, 0x30, 0x00, 0xf0, 0x01, 0xe0,
   0x07, 0x00, 0x80, 0x01, 0xf0, 0x00, 0x00, 0xe0, 0x01, 0x30, 0x00, 0xf8,
   0x03, 0xf0, 0x07, 0x00, 0x00, 0x0f, 0x7c, 0x00, 0x00, 0xc0, 0x07, 0x1e,
   0x00, 0xff, 0x1f, 0xfe, 0x3f, 0x00, 0x00, 0xfc, 0x3f, 0x00, 0x00, 0x00,
   0xff, 0x0f, 0x00, 0xff, 0x1f, 0xfe, 0x3f, 0x00, 0x00, 0xf0, 0x07, 0x00,
   0x00, 0x00, 0xfc, 0x01, 0x00, 0xff, 0x1f, 0xfe, 0x3f, 0x00, 0x00, 0xf0,
   0x07, 0x00, 0x00, 0x00, 0xfc, 0x01, 0x00, 0x00, 0x00, 0x00, 0x00, 0x00,
   0x00, 0x00, 0x00, 0x00, 0x00, 0x00, 0x00, 0x00, 0x00, 0xff, 0x03, 0x00,
   0xf8, 0x0f, 0x00, 0x00, 0x20, 0x00, 0x00, 0x00, 0xf8, 0x01, 0x00, 0xfe,
   0x01, 0x00, 0xf8, 0x0f, 0x00, 0x00, 0x20, 0x00, 0x00, 0x00, 0xf8, 0x01,
   0x00, 0x7c, 0x00, 0x00, 0xe0, 0x07, 0x00, 0x00, 0x30, 0x00, 0x00, 0x00,
   0xfe, 0x07, 0x00, 0x7c, 0x00, 0x00, 0xc0, 0x01, 0x00, 0x00, 0x38, 0x00,
   0x00, 0x80, 0x07, 0x0e, 0x00, 0xfc, 0x00, 0x00, 0xc0, 0x01, 0x00, 0x00,
   0x38, 0x00, 0x00, 0xc0, 0x03, 0x1c, 0x00, 0xf8, 0x00, 0x00, 0xc0, 0x00,
   0x00, 0x00, 0x38, 0x00, 0x00, 0xc0, 0x03, 0x1c, 0x00, 0xf8, 0x00, 0x00,
   0xc0, 0x00, 0x00, 0x00, 0x3c, 0x00, 0x00, 0xe0, 0x01, 0x38, 0x00, 0xf0,
   0x01, 0x00, 0x60, 0x00, 0x00, 0x00, 0x3e, 0x00, 0x00, 0xf0, 0x00, 0x70,
   0x00, 0xf0, 0x01, 0x00, 0x60, 0x00, 0x00, 0x00, 0x3e, 0x00, 0x00, 0xf0,
   0x00, 0x70, 0x00, 0xf0, 0x01, 0x00, 0x60, 0x00, 0x00, 0x00, 0x3e, 0x00,
   0x00, 0xf0, 0x00, 0x70, 0x00, 0xf0, 0x01, 0x00, 0x70, 0x00, 0x00, 0x00,
   0x3f, 0x00, 0x00, 0x78, 0x00, 0xf0, 0x00, 0xe0, 0x03, 0x00, 0x30, 0x00,
   0x00, 0x00, 0x3f, 0x00, 0x00, 0x78, 0x00, 0xf0, 0x00, 0xe0, 0x03, 0x00,
   0x30, 0x00, 0x00, 0x80, 0x3f, 0x00, 0x00, 0x7c, 0x00, 0xe0, 0x01, 0xe0,
   0x03, 0x00, 0x30, 0x00, 0x00, 0x80, 0x3f, 0x00, 0x00, 0x7c, 0x00, 0xe0,
   0x01, 0xe0, 0x07, 0x00, 0x38, 0x00, 0x00, 0xc0, 0x3d, 0x00, 0x00, 0x7c,
   0x00, 0xe0, 0x01, 0xc0, 0x07, 0x00, 0x18, 0x00, 0x00, 0xc0, 0x3d, 0x00,
   0x00, 0x7c, 0x00, 0xe0, 0x01, 0xc0, 0x07, 0x00, 0x18, 0x00, 0x00, 0xe0,
   0x3c, 0x00, 0x00, 0x7c, 0x00, 0xe0, 0x01, 0xc0, 0x07, 0x00, 0x1c, 0x00,
   0x00, 0xe0, 0x3c, 0x00, 0x00, 0x7c, 0x00, 0xe0, 0x01, 0x80, 0x0f, 0x00,
   0x0c, 0x00, 0x00, 0x70, 0x3c, 0x00, 0x00, 0x7c, 0x00, 0xe0, 0x03, 0x80,
   0x0f, 0x00, 0x0c, 0x00, 0x00, 0x70, 0x3c, 0x00, 0x00, 0x7c, 0x00, 0xe0,
   0x03, 0x80, 0x0f, 0x00, 0x0c, 0x00, 0x00, 0x38, 0x3c, 0x00, 0x00, 0x7c,
   0x00, 0xe0, 0x03, 0x80, 0x1f, 0x00, 0x0e, 0x00, 0x00, 0x38, 0x3c, 0x00,
   0x00, 0x7c, 0x00, 0xe0, 0x03, 0x00, 0x1f, 0x00, 0x06, 0x00, 0x00, 0x18,
   0x3c, 0x00, 0x00, 0x7c, 0x00, 0xe0, 0x03, 0x00, 0x1f, 0x00, 0x06, 0x00,
   0x00, 0x1c, 0x3c, 0x00, 0x00, 0x78, 0x00, 0xe0, 0x03, 0x00, 0x1f, 0x00,
   0x06, 0x00, 0x00, 0x0e, 0x3c, 0x00, 0x00, 0x78, 0x00, 0xf0, 0x03, 0x00,
   0x3f, 0x00, 0x07, 0x00, 0x00, 0x0e, 0x3c, 0x00, 0x00, 0x78, 0x00, 0xf0,
   0x03, 0x00, 0x3e, 0x00, 0x03, 0x00, 0x00, 0x06, 0x3c, 0x00, 0x00, 0x78,
   0x00, 0xf0, 0x03, 0x00, 0x3e, 0x00, 0x03, 0x00, 0x00, 0x07, 0x3c, 0x00,
   0x00, 0xf0, 0x00, 0xf0, 0x03, 0x00, 0x3e, 0x80, 0x03, 0x00, 0x80, 0x03,
   0x3c, 0x00, 0x00, 0xe0, 0x00, 0xe8, 0x03, 0x00, 0x7c, 0x80, 0x01, 0x00,
   0x80, 0x03, 0x3c, 0x00, 0x00, 0xe0, 0x00, 0xe8, 0x03, 0x00, 0x7c, 0x80,
   0x01, 0x00, 0x80, 0x01, 0x3c, 0x00, 0x00, 0xc0, 0x01, 0xe8, 0x03, 0x00,
   0xfc, 0x80, 0x01, 0x00, 0xc0, 0x01, 0x3c, 0x00, 0x00, 0x80, 0x03, 0xe4,
   0x03, 0x00, 0xfc, 0xc0, 0x01, 0x00, 0xc0, 0x00, 0x3c, 0x00, 0x00, 0x00,
   0x07, 0xe3, 0x03, 0x00, 0xf8, 0xc0, 0x00, 0x00, 0xc0, 0x00, 0x3c, 0x00,
   0x00, 0x00, 0x07, 0xe3, 0x03, 0x00, 0xf8, 0xc0, 0x00, 0x00, 0x60, 0x00,
   0x3c, 0x00, 0x00, 0x00, 0xfc, 0xe0, 0x03, 0x00, 0xf8, 0xe1, 0x00, 0x00,
   0x70, 0x00, 0x3c, 0x00, 0x00, 0x00, 0x00, 0xe0, 0x01, 0x00, 0xf8, 0xe1,
   0x00, 0x00, 0xf0, 0xff, 0xff, 0x0f, 0x00, 0x00, 0x00, 0xe0, 0x01, 0x00,
   0xf0, 0x61, 0x00, 0x00, 0xf0, 0xff, 0xff, 0x0f, 0x00, 0x00, 0x00, 0xe0,
   0x01, 0x00, 0xf0, 0x61, 0x00, 0x00, 0xf0, 0xff, 0xff, 0x0f, 0x00, 0x00,
   0x00, 0xe0, 0x01, 0x00, 0xe0, 0x33, 0x00, 0x00, 0x00, 0x00, 0x3c, 0x00,
   0x00, 0x00, 0x00, 0xf0, 0x01, 0x00, 0xe0, 0x33, 0x00, 0x00, 0x00, 0x00,
   0x3c, 0x00, 0x00, 0x00, 0x00, 0xf0, 0x00, 0x00, 0xe0, 0x33, 0x00, 0x00,
   0x00, 0x00, 0x3c, 0x00, 0x00, 0x00, 0x00, 0xf0, 0x00, 0x00, 0xe0, 0x3f,
   0x00, 0x00, 0x00, 0x00, 0x3c, 0x00, 0x00, 0x00, 0x00, 0xf0, 0x00, 0x00,
   0xc0, 0x1f, 0x00, 0x00, 0x00, 0x00, 0x3c, 0x00, 0x00, 0x00, 0x00, 0x70,
   0x00, 0x00, 0xc0, 0x1f, 0x00, 0x00, 0x00, 0x00, 0x3c, 0x00, 0x00, 0xe0,
   0x00, 0x78, 0x00, 0x00, 0xc0, 0x1f, 0x00, 0x00, 0x00, 0x00, 0x3c, 0x00,
   0x00, 0xe0, 0x00, 0x78, 0x00, 0x00, 0x80, 0x0f, 0x00, 0x00, 0x00, 0x00,
   0x3c, 0x00, 0x00, 0xf0, 0x01, 0x38, 0x00, 0x00, 0x80, 0x0f, 0x00, 0x00,
   0x00, 0x00, 0x3c, 0x00, 0x00, 0xf0, 0x01, 0x1c, 0x00, 0x00, 0x80, 0x0f,
   0x00, 0x00, 0x00, 0x00, 0x3c, 0x00, 0x00, 0xf0, 0x00, 0x0e, 0x00, 0x00,
   0x80, 0x0f, 0x00, 0x00, 0x00, 0x00, 0x3c, 0x00, 0x00, 0xf0, 0x00, 0x0e,
   0x00, 0x00, 0x00, 0x07, 0x00, 0x00, 0x00, 0x00, 0x7e, 0x00, 0x00, 0x60,
   0x00, 0x07, 0x00, 0x00, 0x00, 0x07, 0x00, 0x00, 0x00, 0xf0, 0xff, 0x0f,
   0x00, 0xe0, 0xc0, 0x03, 0x00, 0x00, 0x00, 0x07, 0x00, 0x00, 0x00, 0xf0,
   0xff, 0x0f, 0x00, 0xc0, 0xff, 0x01, 0x00, 0x00, 0x00, 0x07, 0x00, 0x00,
   0x00, 0xf0, 0xff, 0x0f, 0x00, 0xc0, 0xff, 0x01, 0x00, 0x00, 0x00, 0x02,
   0x00, 0x00, 0x00, 0x00, 0x00, 0x00, 0x00, 0x00, 0x7f, 0x00, 0x00, 0xff,
   0xff, 0x0f, 0x00, 0x00, 0x00, 0x00, 0x00, 0x00, 0x00, 0x00, 0x00, 0x00,
   0x00, 0xff, 0xff, 0x1f, 0x00, 0x00, 0x00, 0x06, 0x00, 0x02, 0x00, 0x20,
   0x00, 0x78, 0x00, 0xff, 0xff, 0x7f, 0x00, 0x00, 0x00, 0x06, 0x00, 0x02,
   0x00, 0x30, 0x00, 0x78, 0x00, 0xff, 0xff, 0xff, 0x00, 0x00, 0x00, 0x3e,
   0xc0, 0x01, 0x00, 0x38, 0x00, 0xce, 0x01, 0xf8, 0x03, 0xfc, 0x00, 0x00,
   0x00, 0xfe, 0xff, 0x01, 0x00, 0x3c, 0x80, 0x03, 0x07, 0xf0, 0x01, 0xe0,
   0x03, 0x00, 0x00, 0xfe, 0xff, 0x00, 0x00, 0x3f, 0xc0, 0x01, 0x0e, 0xf0,
   0x01, 0xc0, 0x07, 0x00, 0x00, 0xfe, 0xff, 0x00, 0xc0, 0x3f, 0xc0, 0x01,
   0x0e, 0xf0, 0x01, 0x80, 0x0f, 0x00, 0x00, 0xfe, 0x3f, 0x00, 0xf0, 0x3f,
   0xe0, 0x01, 0x1e, 0xf0, 0x01, 0x80, 0x0f, 0x00, 0x00, 0xfe, 0x1f, 0x00,
   0x30, 0x3c, 0xe0, 0x00, 0x1c, 0xf0, 0x01, 0x80, 0x1f, 0x00, 0x00, 0xe2,
   0x03, 0x00, 0x00, 0x3c, 0xf0, 0x00, 0x3c, 0xf0, 0x01, 0x00, 0x1f, 0x00,
   0x00, 0xe2, 0x03, 0x00, 0x00, 0x3c, 0xf0, 0x00, 0x3c, 0xf0, 0x01, 0x00,
   0x3f, 0x00, 0x00, 0x02, 0x00, 0x00, 0x00, 0x3c, 0xf0, 0x00, 0x3c, 0xf0,
   0x01, 0x00, 0x3f, 0x00, 0x00, 0x02, 0x00, 0x00, 0x00, 0x3c, 0x70, 0x00,
   0x38, 0xf0, 0x01, 0x00, 0x3f, 0x00, 0x00, 0x02, 0x00, 0x00, 0x00, 0x3c,
   0x78, 0x00, 0x78, 0xf0, 0x01, 0x00, 0x3f, 0x00, 0x00, 0x02, 0x00, 0x00,
   0x00, 0x3c, 0x78, 0x00, 0x78, 0xf0, 0x01, 0x00, 0x3f, 0x00, 0x00, 0x02,
   0x00, 0x00, 0x00, 0x3c, 0x78, 0x00, 0x78, 0xf0, 0x01, 0x00, 0x3f, 0x00,
   0x00, 0x02, 0x00, 0x00, 0x00, 0x3c, 0x78, 0x00, 0x78, 0xf0, 0x01, 0x00,
   0x3f, 0x00, 0x00, 0x02, 0x00, 0x00, 0x00, 0x3c, 0x78, 0x00, 0x78, 0xf0,
   0x01, 0x00, 0x3f, 0x00, 0x00, 0x02, 0x00, 0x00, 0x00, 0x3c, 0x78, 0x00,
   0x78, 0xf0, 0x01, 0x00, 0x1f, 0x00, 0x00, 0x02, 0x00, 0x00, 0x00, 0x3c,
   0x7c, 0x00, 0xf8, 0xf0, 0x01, 0x00, 0x1f, 0x00, 0x00, 0x02, 0x00, 0x00,
   0x00, 0x3c, 0x7c, 0x00, 0xf8, 0xf0, 0x01, 0x80, 0x0f, 0x00, 0x00, 0xc2,
   0x0f, 0x00, 0x00, 0x3c, 0x7c, 0x00, 0xf8, 0xf0, 0x01, 0x80, 0x0f, 0x00,
   0x00, 0xc2, 0x0f, 0x00, 0x00, 0x3c, 0x7c, 0x00, 0xf8, 0xf0, 0x01, 0xc0,
   0x03, 0x00, 0x00, 0x32, 0x30, 0x00, 0x00, 0x3c, 0x7c, 0x00, 0xf8, 0xf0,
   0x01, 0xc0, 0x03, 0x00, 0x00, 0x0a, 0xe0, 0x00, 0x00, 0x3c, 0x7c, 0x00,
   0xf8, 0xf0, 0x01, 0xf0, 0x01, 0x00, 0x00, 0x06, 0xe0, 0x01, 0x00, 0x3c,
   0x7c, 0x00, 0xf8, 0xf0, 0x01, 0x7c, 0x00, 0x00, 0x00, 0x06, 0xe0, 0x01,
   0x00, 0x3c, 0x7c, 0x00, 0xf8, 0xf0, 0xff, 0x0f, 0x00, 0x00, 0x00, 0x02,
   0xc0, 0x01, 0x00, 0x3c, 0x7c, 0x00, 0xf8, 0xf0, 0xff, 0x0f, 0x00, 0x00,
   0x00, 0x00, 0xc0, 0x03, 0x00, 0x3c, 0x7c, 0x00, 0xf8, 0xf0, 0x01, 0x1c,
   0x00, 0x00, 0x00, 0x00, 0x80, 0x07, 0x00, 0x3c, 0x7c, 0x00, 0xf8, 0xf0,
   0x01, 0x78, 0x00, 0x00, 0x00, 0x00, 0x80, 0x07, 0x00, 0x3c, 0x7c, 0x00,
   0xf8, 0xf0, 0x01, 0xf0, 0x00, 0x00, 0x00, 0x00, 0x80, 0x07, 0x00, 0x3c,
   0x7c, 0x00, 0xf8, 0xf0, 0x01, 0xf0, 0x00, 0x00, 0x00, 0x00, 0x80, 0x07,
   0x00, 0x3c, 0x7c, 0x00, 0xf8, 0xf0, 0x01, 0xe0, 0x01, 0x00, 0x00, 0x00,
   0x80, 0x0f, 0x00, 0x3c, 0x7c, 0x00, 0xf8, 0xf0, 0x01, 0xe0, 0x03, 0x00,
   0x00, 0x00, 0x80, 0x0f, 0x00, 0x3c, 0x7c, 0x00, 0xf8, 0xf0, 0x01, 0xc0,
   0x03, 0x00, 0x00, 0x00, 0x80, 0x0f, 0x00, 0x3c, 0x7c, 0x00, 0xf8, 0xf0,
   0x01, 0xc0, 0x03, 0x00, 0x00, 0x00, 0x80, 0x0f, 0x00, 0x3c, 0x7c, 0x00,
   0xf8, 0xf0, 0x01, 0xc0, 0x07, 0x00, 0x80, 0x03, 0x80, 0x0f, 0x00, 0x3c,
   0x7c, 0x00, 0xf8, 0xf0, 0x01, 0xc0, 0x07, 0x00, 0x80, 0x03, 0x80, 0x0f,
   0x00, 0x3c, 0x7c, 0x00, 0xf8, 0xf0, 0x01, 0xc0, 0x07, 0x00, 0xc0, 0x07,
   0x80, 0x0f, 0x00, 0x3c, 0x78, 0x00, 0x78, 0xf0, 0x01, 0xc0, 0x07, 0x00,
   0xc0, 0x07, 0x80, 0x0f, 0x00, 0x3c, 0x78, 0x00, 0x78, 0xf0, 0x01, 0xc0,
   0x07, 0x00, 0xc0, 0x07, 0x80, 0x0f, 0x00, 0x3c, 0x78, 0x00, 0x78, 0xf0,
   0x01, 0xc0, 0x0f, 0x00, 0xc0, 0x07, 0x80, 0x0f, 0x00, 0x3c, 0x78, 0x00,
   0x78, 0xf0, 0x01, 0xc0, 0x0f, 0x00, 0xc0, 0x07, 0x80, 0x07, 0x00, 0x3c,
   0x78, 0x00, 0x78, 0xf0, 0x01, 0xc0, 0x0f, 0x00, 0x40, 0x00, 0x80, 0x07,
   0x00, 0x3c, 0xf8, 0x00, 0x7c, 0xf0, 0x01, 0xc0, 0x0f, 0x00, 0x80, 0x00,
   0xc0, 0x07, 0x00, 0x3c, 0xf0, 0x00, 0x3c, 0xf0, 0x01, 0xc0, 0x0f, 0x00,
   0x80, 0x00, 0xc0, 0x07, 0x00, 0x3c, 0xf0, 0x00, 0x3c, 0xf0, 0x01, 0xc0,
   0x0f, 0x00, 0x80, 0x00, 0xc0, 0x03, 0x00, 0x3c, 0xf0, 0x00, 0x3c, 0xf0,
   0x01, 0xc0, 0x0f, 0x00, 0x80, 0x01, 0xc0, 0x03, 0x00, 0x3c, 0xe0, 0x00,
   0x1c, 0xf0, 0x01, 0xc0, 0x1f, 0x00, 0x00, 0x03, 0xe0, 0x01, 0x00, 0x3c,
   0xe0, 0x01, 0x1e, 0xf0, 0x01, 0x80, 0x1f, 0x00, 0x00, 0x03, 0xe0, 0x01,
   0x00, 0x3c, 0xe0, 0x01, 0x1e, 0xf8, 0x03, 0x00, 0x1f, 0x08, 0x00, 0x06,
   0xf0, 0x00, 0x00, 0x7e, 0xc0, 0x01, 0x0e, 0xf8, 0x03, 0x00, 0x1f, 0x08,
   0x00, 0x1c, 0x7c, 0x00, 0xc0, 0xff, 0x83, 0x03, 0x07, 0xff, 0x3f, 0x00,
   0x3e, 0x08, 0x00, 0xf8, 0x1f, 0x00, 0xe0, 0xff, 0x07, 0xce, 0x01, 0xff,
   0x3f, 0x00, 0x3c, 0x04, 0x00, 0xf8, 0x1f, 0x00, 0xe0, 0xff, 0x07, 0xce,
   0x01, 0xff, 0x3f, 0x00, 0xf0, 0x03, 0x00, 0xe0, 0x07, 0x00, 0x00, 0x00,
   0x00, 0x78, 0x00, 0xff, 0x3f, 0x00, 0xf0, 0x03};
