#define pat_width 64
#define pat_height 64
static char pat_bits[] = {
   0x00, 0x00, 0x00, 0x00, 0x00, 0x00, 0x00, 0x00, 0x00, 0x00, 0x00, 0x00,
   0x00, 0x00, 0x00, 0x00, 0x00, 0x00, 0x00, 0x00, 0x00, 0x00, 0x00, 0x00,
   0xf0, 0xff, 0xe3, 0xff, 0xc7, 0xff, 0x07, 0x00, 0x58, 0x7a, 0x55, 0x92,
   0x28, 0x00, 0x08, 0x00, 0xe8, 0xaf, 0xd5, 0xbc, 0xab, 0x00, 0x0a, 0x00,
   0xb8, 0xe5, 0xb7, 0xbe, 0xae, 0x00, 0x0a, 0x00, 0x28, 0x0d, 0x94, 0x13,
   0x29, 0x00, 0x08, 0x00, 0xf8, 0xff, 0xf7, 0xff, 0x2f, 0x00, 0x08, 0x00,
   0x08, 0x00, 0xd4, 0x84, 0xa8, 0x01, 0x0b, 0x00, 0x28, 0x00, 0xd5, 0xe2,
   0xad, 0x00, 0x0b, 0x00, 0x68, 0x40, 0x15, 0x75, 0xaa, 0x01, 0x0a, 0x00,
   0x28, 0x00, 0x54, 0x08, 0x2a, 0x00, 0x08, 0x00, 0xf8, 0xff, 0xf7, 0xff,
   0x2f, 0x10, 0x08, 0x00, 0x08, 0x00, 0x14, 0x00, 0x28, 0x38, 0x08, 0x00,
   0xa8, 0x80, 0x54, 0x00, 0x2a, 0x10, 0x08, 0x00, 0xa8, 0x80, 0xd4, 0x00,
   0x29, 0x38, 0x08, 0x00, 0x28, 0x00, 0x14, 0x00, 0x28, 0x54, 0x08, 0x00,
   0xf8, 0xff, 0xf7, 0xff, 0x2f, 0x30, 0x08, 0x00, 0x08, 0x00, 0x54, 0x00,
   0x28, 0x20, 0x08, 0x00, 0x48, 0x00, 0x15, 0x00, 0x29, 0x00, 0x08, 0x00,
   0x28, 0x00, 0x95, 0x00, 0xab, 0x01, 0x0a, 0x00, 0x08, 0x00, 0xd4, 0x00,
   0xa8, 0x01, 0x0b, 0x00, 0xf8, 0xff, 0xf7, 0xff, 0xaf, 0x00, 0x0b, 0x00,
   0x08, 0x00, 0x14, 0x00, 0x28, 0x00, 0x08, 0x00, 0xc8, 0xfb, 0x54, 0x00,
   0x2a, 0x00, 0x08, 0x00, 0xa8, 0xf6, 0x94, 0x00, 0xab, 0x00, 0x0a, 0x00,
   0xa8, 0x8d, 0x14, 0x00, 0xa9, 0x00, 0x0a, 0x00, 0xf8, 0xff, 0xf7, 0xff,
   0x2f, 0x00, 0x08, 0x00, 0x08, 0x00, 0x14, 0x00, 0xc8, 0xff, 0x07, 0x00,
   0x48, 0x80, 0xd5, 0xff, 0x09, 0x00, 0x00, 0x00, 0x28, 0x00, 0xd4, 0x00,
   0x09, 0x00, 0x00, 0x00, 0x08, 0x80, 0x95, 0x18, 0x09, 0x00, 0x00, 0x00,
   0xf8, 0xff, 0x97, 0x2c, 0x09, 0x00, 0x00, 0x00, 0x08, 0x00, 0x94, 0x3a,
   0x09, 0x00, 0x00, 0x00, 0x28, 0x00, 0x94, 0x2c, 0x09, 0x00, 0x00, 0x00,
   0x68, 0x00, 0x94, 0x10, 0x09, 0x00, 0x00, 0x00, 0x68, 0x00, 0x94, 0x3c,
   0x09, 0x00, 0x00, 0x00, 0x08, 0x00, 0x94, 0x38, 0x09, 0x00, 0x00, 0x00,
   0x08, 0x00, 0x94, 0x7e, 0x09, 0x00, 0x00, 0x00, 0x08, 0x00, 0xf4, 0xff,
   0x0f, 0x00, 0x00, 0x00, 0x08, 0x00, 0x94, 0x7e, 0x09, 0x00, 0x00, 0x00,
   0x08, 0x04, 0x94, 0x1c, 0x09, 0x00, 0x00, 0x00, 0x08, 0x04, 0x94, 0x3c,
   0x09, 0x00, 0x00, 0x00, 0x08, 0x0e, 0x94, 0x08, 0x09, 0x00, 0x00, 0x00,
   0x08, 0x0e, 0x94, 0x34, 0x09, 0x00, 0x00, 0x00, 0x08, 0x1f, 0x94, 0x5c,
   0x09, 0x00, 0x00, 0x00, 0x08, 0x1f, 0x94, 0x34, 0x09, 0x00, 0x00, 0x00,
   0x08, 0x15, 0x94, 0x18, 0x09, 0x00, 0x00, 0x00, 0x08, 0x0e, 0x94, 0x00,
   0x0b, 0x00, 0x00, 0x00, 0x08, 0x00, 0x94, 0xff, 0x0b, 0x00, 0x00, 0x00,
   0x08, 0x00, 0x14, 0x00, 0x08, 0x00, 0x00, 0x00, 0x08, 0x00, 0xe4, 0xff,
   0x07, 0x00, 0x00, 0x00, 0x08, 0x00, 0x04, 0x00, 0x00, 0x00, 0x00, 0x00,
   0x08, 0x80, 0x04, 0x00, 0x00, 0x00, 0x00, 0x00, 0x08, 0x80, 0x05, 0x00,
   0x00, 0x00, 0x00, 0x00, 0x08, 0x80, 0x05, 0x00, 0x00, 0x00, 0x00, 0x00,
   0x08, 0x00, 0x04, 0x00, 0x00, 0x00, 0x00, 0x00, 0xf0, 0xff, 0x03, 0x00,
   0x00, 0x00, 0x00, 0x00, 0x00, 0x00, 0x00, 0x00, 0x00, 0x00, 0x00, 0x00,
   0x00, 0x00, 0x00, 0x00, 0x00, 0x00, 0x00, 0x00, 0x00, 0x00, 0x00, 0x00,
   0x00, 0x00, 0x00, 0x00, 0x00, 0x00, 0x00, 0x00, 0x00, 0x00, 0x00, 0x00,
   0x00, 0x00, 0x00, 0x00, 0x00, 0x00, 0x00, 0x00};
