#define stipple_width 8
#define stipple_height 8
static char stipple_bits[] = {
   0x11, 0x0a, 0x04, 0x0a, 0x11, 0xa0, 0x40, 0xa0};
