/* XPM */
static char * face_xpm[] = {
/* width height ncolors chars_per_pixel */
"48 48 10 1",
/* colors */
" 	s None	c None",
".	c grey53",
"X	c grey40",
"o	c grey27",
"O	c grey47",
"+	c grey7",
"@	c black",
"#	c grey13",
"$	c grey33",
"%	c grey20",
/* pixels */
"                                                ",
"                                                ",
"                     .XooO.                     ",
"                   .+@@@@@@o                    ",
"                  .@@@@@@@@@X                   ",
"                 .@@@@@@@@@@+                   ",
"                .@@@@@@@@@@@@                   ",
"                o@@@@@@@@@@@@.                  ",
"                @@@@@@@@@@@@@.                  ",
"               .@@@@@@@@@@@@@.                  ",
"               .@@@@@@@@@@@@@.                  ",
"                @@@@@@@@@@@@+                   ",
"                @@@@@@@@@@@@O                   ",
"                O@@@@@@@@@@o                    ",
"                 +@@@@@@@@@.                    ",
"     ...        .#@@@@@@@@@@#o$OOOOOOOOooX.     ",
"    #@@@@+o...X#@@@@@@@@@@@@@@@@@@@@@@@@@@@o    ",
"   +@@@@@@@@@@@@@@@@@@@@@@@@@@@@@@@@@@@@@@@@O   ",
"  o@@@@@@@@@@@@@@@@@@@@@@@@@@@@@@@@@@@@@@@@@@   ",
"  @@@@@@@@@@@@@@@@@@@@@@@@@@@@@@@@@@@@@@@@@@@O  ",
" .@@@@@@@@@@@@@@@@@@@@@@@@@@@@@@@@@@@@@@@@@@@O  ",
"  +@@@@@@@@@@@@@@@@@@@@@@@@@@@@@@@@@@@@@@#X.    ",
"  .@@#@@@@@@@@@@@@@@@@@@@@@@@@@@@@@@+o..        ",
"       .Xo%+@@@@@@@@@@@@@@@@@@@@@o.             ",
"             O+@@@@@@@@@@@@@@@@X                ",
"              .@@@@@@@@@@@@@@@.                 ",
"               @@@@@@@@@@@@@@X                  ",
"              .@@@@@@@@@@@@@@.                  ",
"              o@@@@@@@@@@@@@@                   ",
"             .@@@@@@@@@@@@@@@                   ",
"             #@@@@@@@@@@@@@@@                   ",
"         .#+@@@@@@@@@@@@@@@@@.                  ",
"         @@@@@@@@@@@@@@@@@@@@+                  ",
"        .@@@@@@@@@@@@@@@@@@@@@#                 ",
"        O@@@@@@@@@@@@@@@@@@@@@@%                ",
"        .@@@@@@@@@+. %@@@@@@@@@@                ",
"        .@@@@@@@@o    %@@@@@@@@o                ",
"         @@@@@@@.      #@@@@@@+                 ",
"         o@@@@@.       %@@@@@@.                 ",
"         .@@@@@.      .@@@@@@@                  ",
"          o@@@@.      O@@@@@@#                  ",
"           %@@@.      .@@@@@@@$                 ",
"            O%$        O@@@@@@@X                ",
"                        .#@@@@@+                ",
"                          .o@@@%                ",
"                             ..                 ",
"                                                ",
"                                                "};
